%FSLAX24Y24*%
%MOIN*%
G70*
G01*
G75*
G04 Layer_Physical_Order=4*
G04 Layer_Color=16711680*
%ADD10R,0.0276X0.0354*%
%ADD11R,0.0315X0.0354*%
%ADD12R,0.0354X0.0276*%
%ADD13R,0.0170X0.0520*%
%ADD14R,0.0520X0.0170*%
%ADD15R,0.0217X0.0512*%
%ADD16R,0.0354X0.0315*%
%ADD17R,0.0236X0.0591*%
%ADD18R,0.0413X0.0476*%
%ADD19R,0.1575X0.0709*%
%ADD20C,0.0150*%
%ADD21C,0.0120*%
%ADD22C,0.0300*%
%ADD23C,0.1063*%
%ADD24C,0.0630*%
%ADD25C,0.0472*%
%ADD26C,0.0591*%
%ADD27R,0.0591X0.0591*%
%ADD28C,0.0661*%
%ADD29R,0.0591X0.0591*%
%ADD30C,0.0320*%
%ADD31C,0.0260*%
%ADD32C,0.0236*%
%ADD33C,0.0400*%
%ADD34R,0.0512X0.0217*%
%ADD35O,0.0866X0.0236*%
%ADD36O,0.0374X0.0138*%
%ADD37O,0.0138X0.0374*%
%ADD38R,0.0866X0.0866*%
%ADD39O,0.0236X0.0866*%
%ADD40R,0.0160X0.0255*%
%ADD41C,0.0160*%
%ADD42C,0.0100*%
G36*
X8150Y7382D02*
X650D01*
Y12579D01*
X8150D01*
Y7382D01*
D02*
G37*
G36*
X11500Y16000D02*
X11200D01*
Y15777D01*
X11084D01*
Y15500D01*
Y15223D01*
X11200D01*
Y15077D01*
X11084D01*
Y14800D01*
Y14523D01*
X11200D01*
Y13700D01*
X10900D01*
Y13582D01*
X10864D01*
Y13582D01*
X10568D01*
Y13374D01*
X10508D01*
Y13314D01*
X10152D01*
Y13166D01*
X10192D01*
Y12834D01*
X10152D01*
Y12686D01*
X10508D01*
Y12566D01*
X10152D01*
Y12418D01*
X10500D01*
Y12400D01*
X10500D01*
Y11997D01*
X10493Y11986D01*
X10476Y11900D01*
X10493Y11814D01*
X10500Y11803D01*
Y8797D01*
X10493Y8786D01*
X10476Y8700D01*
X10493Y8614D01*
X10500Y8603D01*
Y8400D01*
X10900D01*
Y8282D01*
X10864D01*
Y8282D01*
X10568D01*
Y8074D01*
X10508D01*
Y8014D01*
X10152D01*
Y7866D01*
X10152D01*
Y7858D01*
X10117Y7822D01*
X10046D01*
X10037Y7831D01*
Y8093D01*
X9563D01*
Y7658D01*
X9862D01*
X9889Y7617D01*
X9875Y7582D01*
X9860D01*
Y7384D01*
X10077D01*
Y7578D01*
X10152D01*
Y7534D01*
X10152D01*
Y7386D01*
X10508D01*
Y7326D01*
X10568D01*
Y7118D01*
X10864D01*
Y7118D01*
X10865D01*
X10900Y7082D01*
Y7000D01*
X9200D01*
Y12763D01*
X9342D01*
Y13237D01*
X9200D01*
Y13700D01*
X10500D01*
Y13878D01*
X10707D01*
Y13763D01*
X11142D01*
Y14237D01*
X10707D01*
Y14122D01*
X10500D01*
Y18400D01*
X11500D01*
Y16000D01*
D02*
G37*
%LPC*%
G36*
X9760Y10491D02*
Y10160D01*
X10091D01*
X10085Y10203D01*
X10045Y10299D01*
X9982Y10382D01*
X9899Y10445D01*
X9803Y10485D01*
X9760Y10491D01*
D02*
G37*
G36*
X10091Y10040D02*
X9760D01*
Y9709D01*
X9803Y9715D01*
X9899Y9755D01*
X9982Y9818D01*
X10045Y9901D01*
X10085Y9997D01*
X10091Y10040D01*
D02*
G37*
G36*
X9640Y10491D02*
X9597Y10485D01*
X9501Y10445D01*
X9418Y10382D01*
X9355Y10299D01*
X9315Y10203D01*
X9309Y10160D01*
X9640D01*
Y10491D01*
D02*
G37*
G36*
Y11040D02*
X9309D01*
X9315Y10997D01*
X9355Y10901D01*
X9418Y10818D01*
X9501Y10755D01*
X9597Y10715D01*
X9640Y10709D01*
Y11040D01*
D02*
G37*
G36*
X9760Y11491D02*
Y11160D01*
X10091D01*
X10085Y11203D01*
X10045Y11299D01*
X9982Y11382D01*
X9899Y11445D01*
X9803Y11485D01*
X9760Y11491D01*
D02*
G37*
G36*
X9640Y12040D02*
X9309D01*
X9315Y11997D01*
X9355Y11901D01*
X9418Y11818D01*
X9501Y11755D01*
X9597Y11715D01*
X9640Y11709D01*
Y12040D01*
D02*
G37*
G36*
X10091Y11040D02*
X9760D01*
Y10709D01*
X9803Y10715D01*
X9899Y10755D01*
X9982Y10818D01*
X10045Y10901D01*
X10085Y10997D01*
X10091Y11040D01*
D02*
G37*
G36*
X9640Y11491D02*
X9597Y11485D01*
X9501Y11445D01*
X9418Y11382D01*
X9355Y11299D01*
X9315Y11203D01*
X9309Y11160D01*
X9640D01*
Y11491D01*
D02*
G37*
G36*
Y10040D02*
X9309D01*
X9315Y9997D01*
X9355Y9901D01*
X9418Y9818D01*
X9501Y9755D01*
X9597Y9715D01*
X9640Y9709D01*
Y10040D01*
D02*
G37*
G36*
X10448Y7266D02*
X10152D01*
Y7118D01*
X10448D01*
Y7266D01*
D02*
G37*
G36*
X9740Y7582D02*
X9523D01*
Y7384D01*
X9740D01*
Y7582D01*
D02*
G37*
G36*
Y7264D02*
X9523D01*
Y7067D01*
X9740D01*
Y7264D01*
D02*
G37*
G36*
X10077D02*
X9860D01*
Y7067D01*
X10077D01*
Y7264D01*
D02*
G37*
G36*
X10448Y8282D02*
X10152D01*
Y8134D01*
X10448D01*
Y8282D01*
D02*
G37*
G36*
X9640Y9491D02*
X9597Y9485D01*
X9501Y9445D01*
X9418Y9382D01*
X9355Y9299D01*
X9315Y9203D01*
X9309Y9160D01*
X9640D01*
Y9491D01*
D02*
G37*
G36*
X9760D02*
Y9160D01*
X10091D01*
X10085Y9203D01*
X10045Y9299D01*
X9982Y9382D01*
X9899Y9445D01*
X9803Y9485D01*
X9760Y9491D01*
D02*
G37*
G36*
X9640Y9040D02*
X9309D01*
X9315Y8997D01*
X9355Y8901D01*
X9418Y8818D01*
X9501Y8755D01*
X9597Y8715D01*
X9640Y8709D01*
Y9040D01*
D02*
G37*
G36*
X10091D02*
X9760D01*
Y8709D01*
X9803Y8715D01*
X9899Y8755D01*
X9982Y8818D01*
X10045Y8901D01*
X10085Y8997D01*
X10091Y9040D01*
D02*
G37*
G36*
Y12040D02*
X9760D01*
Y11709D01*
X9803Y11715D01*
X9899Y11755D01*
X9982Y11818D01*
X10045Y11901D01*
X10085Y11997D01*
X10091Y12040D01*
D02*
G37*
G36*
X11395Y16440D02*
X11060D01*
Y16105D01*
X11395D01*
Y16440D01*
D02*
G37*
G36*
X10940Y16895D02*
X10605D01*
Y16560D01*
X10940D01*
Y16895D01*
D02*
G37*
G36*
X10964Y15777D02*
X10767D01*
Y15560D01*
X10964D01*
Y15777D01*
D02*
G37*
G36*
X10940Y16440D02*
X10605D01*
Y16105D01*
X10940D01*
Y16440D01*
D02*
G37*
G36*
X11395Y16895D02*
X11060D01*
Y16560D01*
X11395D01*
Y16895D01*
D02*
G37*
G36*
X10940Y17891D02*
X10897Y17885D01*
X10801Y17845D01*
X10718Y17782D01*
X10655Y17699D01*
X10615Y17603D01*
X10609Y17560D01*
X10940D01*
Y17891D01*
D02*
G37*
G36*
X11060D02*
Y17560D01*
X11391D01*
X11385Y17603D01*
X11345Y17699D01*
X11282Y17782D01*
X11199Y17845D01*
X11103Y17885D01*
X11060Y17891D01*
D02*
G37*
G36*
X10940Y17440D02*
X10609D01*
X10615Y17397D01*
X10655Y17301D01*
X10718Y17218D01*
X10801Y17155D01*
X10897Y17115D01*
X10940Y17109D01*
Y17440D01*
D02*
G37*
G36*
X11391D02*
X11060D01*
Y17109D01*
X11103Y17115D01*
X11199Y17155D01*
X11282Y17218D01*
X11345Y17301D01*
X11385Y17397D01*
X11391Y17440D01*
D02*
G37*
G36*
X10964Y15440D02*
X10767D01*
Y15223D01*
X10964D01*
Y15440D01*
D02*
G37*
G36*
X9616Y12940D02*
X9418D01*
Y12723D01*
X9616D01*
Y12940D01*
D02*
G37*
G36*
X9933D02*
X9736D01*
Y12723D01*
X9933D01*
Y12940D01*
D02*
G37*
G36*
X9640Y12491D02*
X9597Y12485D01*
X9501Y12445D01*
X9418Y12382D01*
X9355Y12299D01*
X9315Y12203D01*
X9309Y12160D01*
X9640D01*
Y12491D01*
D02*
G37*
G36*
X9760D02*
Y12160D01*
X10091D01*
X10085Y12203D01*
X10045Y12299D01*
X9982Y12382D01*
X9899Y12445D01*
X9803Y12485D01*
X9760Y12491D01*
D02*
G37*
G36*
X9616Y13277D02*
X9418D01*
Y13060D01*
X9616D01*
Y13277D01*
D02*
G37*
G36*
X10964Y14740D02*
X10767D01*
Y14523D01*
X10964D01*
Y14740D01*
D02*
G37*
G36*
Y15077D02*
X10767D01*
Y14860D01*
X10964D01*
Y15077D01*
D02*
G37*
G36*
X9933Y13277D02*
X9736D01*
Y13060D01*
X9933D01*
Y13277D01*
D02*
G37*
G36*
X10448Y13582D02*
X10152D01*
Y13434D01*
X10448D01*
Y13582D01*
D02*
G37*
%LPD*%
D10*
X3705Y16700D02*
D03*
X4295D02*
D03*
X4295Y15500D02*
D03*
X3705D02*
D03*
X4295Y16100D02*
D03*
X3705D02*
D03*
X2905Y17900D02*
D03*
X3495D02*
D03*
X9095Y2000D02*
D03*
X8505D02*
D03*
D11*
X11576Y8700D02*
D03*
X11024D02*
D03*
X11576Y6600D02*
D03*
X11024D02*
D03*
X9676Y13000D02*
D03*
X9124D02*
D03*
X11576Y5900D02*
D03*
X11024D02*
D03*
X3376Y3800D02*
D03*
X2824D02*
D03*
X3376Y3100D02*
D03*
X2824D02*
D03*
X11576Y11900D02*
D03*
X11024D02*
D03*
X11576Y11200D02*
D03*
X11024D02*
D03*
X11476Y14000D02*
D03*
X10924D02*
D03*
X11024Y14800D02*
D03*
X11576D02*
D03*
X11024Y15500D02*
D03*
X11576D02*
D03*
D12*
X9500Y14905D02*
D03*
Y15495D02*
D03*
Y15505D02*
D03*
Y16095D02*
D03*
X6500Y15495D02*
D03*
Y14905D02*
D03*
D13*
X9984Y4070D02*
D03*
X9728D02*
D03*
X9472D02*
D03*
X9216D02*
D03*
Y4930D02*
D03*
X9472D02*
D03*
X9728D02*
D03*
X9984D02*
D03*
D15*
X6474Y14292D02*
D03*
X5726D02*
D03*
Y13308D02*
D03*
X6100D02*
D03*
X6474D02*
D03*
X6100Y14292D02*
D03*
D16*
X9800Y7324D02*
D03*
Y7876D02*
D03*
X4400Y13776D02*
D03*
Y13224D02*
D03*
X5100Y13776D02*
D03*
Y13224D02*
D03*
X4800Y15476D02*
D03*
Y14924D02*
D03*
X5400Y15476D02*
D03*
Y14924D02*
D03*
X500Y17824D02*
D03*
Y18376D02*
D03*
X1100Y17824D02*
D03*
Y18376D02*
D03*
X5200Y2124D02*
D03*
Y2676D02*
D03*
X5800Y2124D02*
D03*
Y2676D02*
D03*
D20*
X11576Y10724D02*
Y11200D01*
X9500Y14905D02*
X10195D01*
D21*
X11492Y11983D02*
Y12626D01*
Y11983D02*
X11576Y11900D01*
Y11200D02*
Y11900D01*
X3949Y2558D02*
Y6249D01*
X3700Y2300D02*
Y2553D01*
X3600Y2200D02*
X3700Y2300D01*
X3000Y2200D02*
X3600D01*
X2824Y2376D02*
X3000Y2200D01*
X2824Y2376D02*
Y3100D01*
X1800Y15200D02*
X2800D01*
X1020Y14420D02*
X1800Y15200D01*
X416Y14420D02*
X1020D01*
X500Y12800D02*
X700D01*
X11492Y7326D02*
Y7692D01*
X11500Y7700D01*
X4942Y16442D02*
Y16716D01*
X10100Y5652D02*
X10148D01*
X9500D02*
X10100D01*
X10300Y5852D02*
Y6800D01*
X10100Y5652D02*
X10300Y5852D01*
X8800Y13000D02*
X9124D01*
X10508Y13000D02*
X10900D01*
X6300Y3100D02*
X6350Y3050D01*
Y2355D02*
Y3050D01*
X505Y18376D02*
X1100D01*
X505Y18380D02*
Y18795D01*
X955Y17150D02*
X1550D01*
X1600Y17100D01*
X500Y17824D02*
X1100D01*
Y17295D02*
Y17824D01*
X955Y17150D02*
X1100Y17295D01*
X955Y16650D02*
X1550D01*
X955Y16150D02*
X1550D01*
X1750Y15650D02*
X1900Y15800D01*
X955Y15650D02*
X1750D01*
X1900Y15800D02*
Y16900D01*
X2150Y17150D01*
X2845D01*
X3705Y16700D02*
X3750Y16745D01*
Y17750D01*
X3600Y17900D02*
X3750Y17750D01*
X3495Y17900D02*
X3600D01*
X2845Y17150D02*
Y17840D01*
X2905Y17900D01*
X2594Y15650D02*
X2845D01*
X2252Y15992D02*
X2594Y15650D01*
X9000Y16100D02*
Y17300D01*
X8442Y17858D02*
X9000Y17300D01*
X6084Y17858D02*
X8442D01*
X6458Y17484D02*
X6784D01*
X9495Y16100D02*
X9500Y16095D01*
X9000Y16100D02*
X9495D01*
X4295Y16100D02*
X5000D01*
X4800Y15476D02*
X5400D01*
X4800D02*
Y15800D01*
X6046Y15678D02*
X6084Y15716D01*
X5722Y15678D02*
X6046D01*
X5572Y15828D02*
X5722Y15678D01*
X5572Y15828D02*
Y16342D01*
X5316Y15559D02*
Y16342D01*
X5828Y15928D02*
Y16342D01*
X6084Y15716D02*
Y16342D01*
X4295Y16700D02*
X4926D01*
X2845Y16650D02*
X3655D01*
X2845Y16150D02*
X3655D01*
X3705Y16100D01*
Y15500D02*
Y16100D01*
X4276Y14924D02*
Y15480D01*
Y14924D02*
X4800D01*
X5400D01*
X10500Y500D02*
X11000Y1000D01*
X800Y500D02*
X10500D01*
X400Y900D02*
X800Y500D01*
X400Y900D02*
Y12700D01*
X500Y12800D01*
X4400Y13224D02*
X5100D01*
X4400Y12900D02*
Y13224D01*
Y13776D02*
Y14300D01*
X5476Y13776D02*
X5726Y14026D01*
Y14292D01*
X5476Y13776D02*
X5726Y13525D01*
X5100Y13776D02*
X5476D01*
X6100Y14292D02*
X6474D01*
Y13308D02*
X6792D01*
X6800Y13300D01*
X6100Y13308D02*
X6474D01*
X6500Y14318D02*
Y14905D01*
X6458Y15537D02*
Y16716D01*
X6462Y16976D02*
X7300D01*
X8776Y15500D02*
X9495D01*
X9216Y5368D02*
X9500Y5652D01*
X9216Y4930D02*
Y5368D01*
X9300Y6400D02*
X9800D01*
X8700Y7000D02*
X9300Y6400D01*
X9995Y7700D02*
X10508D01*
X9820Y7876D02*
X9995Y7700D01*
X9800Y7876D02*
X9820D01*
X10148Y5652D02*
X11000Y4800D01*
X9728Y4930D02*
Y5372D01*
X9216Y4070D02*
Y4416D01*
X9300Y4500D01*
X9400D01*
X9472Y4572D01*
Y4930D01*
X9984Y4070D02*
X10370D01*
X9500Y3000D02*
X9728Y3228D01*
Y4070D01*
X6841Y4841D02*
Y4859D01*
Y4841D02*
X6850Y4833D01*
Y4245D02*
Y4833D01*
X6500Y1400D02*
X6850Y1750D01*
Y2355D01*
X7350Y1550D02*
X7500Y1400D01*
X7350Y1550D02*
Y2355D01*
X9095Y2695D02*
X9100Y2700D01*
X9095Y2000D02*
Y2695D01*
X8205Y2000D02*
X8505D01*
X7850Y2355D02*
X8205Y2000D01*
X8800Y4100D02*
X8830Y4070D01*
X9216D01*
X10270Y4930D02*
X10300Y4900D01*
X9984Y4930D02*
X10270D01*
X9146Y5000D02*
X9216Y4930D01*
X7600Y5000D02*
X9146D01*
X7350Y4750D02*
X7600Y5000D01*
X7350Y4245D02*
Y4750D01*
X8205Y4600D02*
X8400D01*
X7850Y4245D02*
X8205Y4600D01*
X8200Y6500D02*
X8700Y6000D01*
X4200Y6500D02*
X8200D01*
X3949Y6249D02*
X4200Y6500D01*
X3949Y2558D02*
X3955Y2553D01*
X2800Y4200D02*
X2824Y4176D01*
Y3800D02*
Y4176D01*
Y3100D02*
Y3800D01*
X3376D02*
Y4176D01*
X3400Y4200D01*
X3376Y3100D02*
Y3800D01*
Y3100D02*
X3445Y3030D01*
Y2553D02*
Y3030D01*
X5200Y2800D02*
X5500Y3100D01*
X5200Y2676D02*
Y2800D01*
Y2676D02*
X5800D01*
X6119Y2124D02*
X6350Y2355D01*
X5800Y2124D02*
X6119D01*
X5200D02*
X5800D01*
X6000Y3895D02*
X6105Y4000D01*
X6000Y3400D02*
Y3895D01*
X4800Y3400D02*
X6000D01*
X4400Y3000D02*
X4800Y3400D01*
X6000D02*
X7600D01*
X9200D01*
X6105Y4000D02*
X6350Y4245D01*
X11000Y5500D02*
X11024Y5524D01*
Y5900D01*
Y6600D01*
X11576Y5900D02*
Y6600D01*
X11492Y6683D02*
X11576Y6600D01*
X11492Y6683D02*
Y7326D01*
X10508Y7700D02*
X11000D01*
X11492Y8617D02*
X11576Y8700D01*
X11492Y8074D02*
Y8617D01*
X10700Y8700D02*
X11024D01*
X10700Y8700D02*
X10700Y8700D01*
X11024Y11200D02*
Y11900D01*
X10700Y11900D02*
X10700Y11900D01*
X11024D01*
X11576Y14800D02*
Y15500D01*
X11500Y14400D02*
X11576Y14476D01*
Y14800D01*
X10300Y14000D02*
X10300Y14000D01*
X10924D01*
X11476Y13391D02*
X11492Y13374D01*
X11476Y13391D02*
Y14000D01*
D23*
X2100Y2394D02*
D03*
Y14206D02*
D03*
D24*
Y2394D02*
D03*
Y14206D02*
D03*
D25*
X7300Y16976D02*
D03*
Y14024D02*
D03*
X8776Y15500D02*
D03*
D26*
X11000Y17500D02*
D03*
Y3500D02*
D03*
X5600Y6000D02*
D03*
X6600D02*
D03*
X7600D02*
D03*
X4600Y7000D02*
D03*
X5600D02*
D03*
X6600D02*
D03*
X7600D02*
D03*
X8700D02*
D03*
Y8000D02*
D03*
Y11100D02*
D03*
Y10100D02*
D03*
Y9100D02*
D03*
X9700Y12100D02*
D03*
Y11100D02*
D03*
Y10100D02*
D03*
Y9100D02*
D03*
X11000Y1000D02*
D03*
X10000D02*
D03*
X9000D02*
D03*
X8000D02*
D03*
X7000D02*
D03*
X6000D02*
D03*
X5000D02*
D03*
X4000D02*
D03*
X2988Y1000D02*
D03*
X11000Y19000D02*
D03*
X10000D02*
D03*
X9000D02*
D03*
X8000D02*
D03*
X7000D02*
D03*
X6000D02*
D03*
X5000D02*
D03*
X4000D02*
D03*
X2988Y19000D02*
D03*
D27*
X11000Y16500D02*
D03*
Y2500D02*
D03*
X8700Y6000D02*
D03*
Y12100D02*
D03*
D28*
X4300Y17700D02*
D03*
X1900Y17900D02*
D03*
X8776Y15500D02*
D03*
X7300Y14024D02*
D03*
X9900Y17700D02*
D03*
X7300Y16976D02*
D03*
X500Y19500D02*
D03*
X9900Y2100D02*
D03*
X4400Y3000D02*
D03*
X1000Y3300D02*
D03*
X9800Y6400D02*
D03*
X11000Y4800D02*
D03*
D29*
X4600Y6000D02*
D03*
X1988Y1000D02*
D03*
Y19000D02*
D03*
D30*
X6800Y9900D02*
D03*
X4100D02*
D03*
X6500Y10700D02*
D03*
X4300Y9100D02*
D03*
Y10700D02*
D03*
X6500Y9100D02*
D03*
X5500D02*
D03*
Y10700D02*
D03*
X6300Y3100D02*
D03*
X4276Y14924D02*
D03*
X3800Y12800D02*
D03*
X3400D02*
D03*
X3000D02*
D03*
X4400Y12900D02*
D03*
Y14300D02*
D03*
X5476Y13776D02*
D03*
X6800Y13300D02*
D03*
X9728Y5372D02*
D03*
X10370Y4070D02*
D03*
X9500Y3000D02*
D03*
X6841Y4841D02*
D03*
X6500Y1400D02*
D03*
X7500D02*
D03*
X9100Y2700D02*
D03*
X8800Y4100D02*
D03*
X10300Y4900D02*
D03*
X8400Y4600D02*
D03*
X2800Y4200D02*
D03*
X3400D02*
D03*
X5500Y3100D02*
D03*
X6000Y3400D02*
D03*
X9200D02*
D03*
X7600D02*
D03*
X11000Y5500D02*
D03*
Y7700D02*
D03*
X10700Y8700D02*
D03*
Y11900D02*
D03*
X11500Y14400D02*
D03*
X10300Y14000D02*
D03*
D31*
X416Y14420D02*
D03*
X600Y15300D02*
D03*
X700Y12800D02*
D03*
X4942Y16442D02*
D03*
X10300Y6800D02*
D03*
X8800Y13000D02*
D03*
X10900Y13000D02*
D03*
X3500Y18300D02*
D03*
X1300Y13100D02*
D03*
X772Y13428D02*
D03*
X300Y15900D02*
D03*
X2222Y15669D02*
D03*
X3000Y18300D02*
D03*
X505Y18795D02*
D03*
X1600Y17100D02*
D03*
X1550Y16650D02*
D03*
Y16150D02*
D03*
X3500Y17200D02*
D03*
X3200Y15100D02*
D03*
X3400Y13900D02*
D03*
X3630Y15130D02*
D03*
X2800Y15200D02*
D03*
X2252Y15992D02*
D03*
X6784Y17484D02*
D03*
X9000Y16100D02*
D03*
X5000Y16100D02*
D03*
X4800Y15800D02*
D03*
X5828Y15928D02*
D03*
X6084Y15716D02*
D03*
D32*
X5995Y17395D02*
D03*
X5405D02*
D03*
X5995Y16805D02*
D03*
X5405D02*
D03*
X5700Y17100D02*
D03*
D33*
X10195Y14905D02*
D03*
X11600Y4400D02*
D03*
X11500Y7700D02*
D03*
X11576Y5324D02*
D03*
Y10724D02*
D03*
D34*
X11492Y7326D02*
D03*
Y8074D02*
D03*
X10508D02*
D03*
Y7700D02*
D03*
Y7326D02*
D03*
X11492Y12626D02*
D03*
Y13374D02*
D03*
X10508D02*
D03*
Y13000D02*
D03*
Y12626D02*
D03*
D35*
X2845Y17150D02*
D03*
Y16650D02*
D03*
Y16150D02*
D03*
Y15650D02*
D03*
X955Y17150D02*
D03*
Y16650D02*
D03*
Y16150D02*
D03*
Y15650D02*
D03*
D36*
X6458Y17484D02*
D03*
Y17228D02*
D03*
Y16972D02*
D03*
Y16716D02*
D03*
X4942D02*
D03*
Y16972D02*
D03*
Y17228D02*
D03*
Y17484D02*
D03*
D37*
X6084Y16342D02*
D03*
X5828D02*
D03*
X5572D02*
D03*
X5316D02*
D03*
Y17858D02*
D03*
X5572D02*
D03*
X5828D02*
D03*
X6084D02*
D03*
D38*
X5700Y17100D02*
D03*
D39*
X6350Y4245D02*
D03*
X6850D02*
D03*
X7350D02*
D03*
X7850D02*
D03*
X6350Y2355D02*
D03*
X6850D02*
D03*
X7350D02*
D03*
X7850D02*
D03*
D40*
X3955Y1847D02*
D03*
X3700D02*
D03*
X3445D02*
D03*
Y2553D02*
D03*
X3700D02*
D03*
X3955D02*
D03*
D41*
X11576Y4424D02*
X11600Y4400D01*
X11576Y4424D02*
Y5324D01*
Y5900D01*
D42*
X4802Y1000D02*
X5000D01*
X3955Y1847D02*
X4802Y1000D01*
X3700Y1300D02*
X4000Y1000D01*
X3700Y1300D02*
Y1847D01*
X3445Y1457D02*
Y1847D01*
X2988Y1000D02*
X3445Y1457D01*
M02*
