%FSLAX24Y24*%
%MOIN*%
G70*
G01*
G75*
G04 Layer_Physical_Order=3*
G04 Layer_Color=16440176*
%ADD10R,0.0276X0.0354*%
%ADD11R,0.0315X0.0354*%
%ADD12R,0.0354X0.0276*%
%ADD13R,0.0170X0.0520*%
%ADD14R,0.0520X0.0170*%
%ADD15R,0.0217X0.0512*%
%ADD16R,0.0354X0.0315*%
%ADD17R,0.0236X0.0591*%
%ADD18R,0.0413X0.0476*%
%ADD19R,0.1575X0.0709*%
%ADD20C,0.0150*%
%ADD21C,0.0120*%
%ADD22C,0.0300*%
%ADD23C,0.1063*%
%ADD24C,0.0630*%
%ADD25C,0.0472*%
%ADD26C,0.0591*%
%ADD27R,0.0591X0.0591*%
%ADD28C,0.0661*%
%ADD29R,0.0591X0.0591*%
%ADD30C,0.0320*%
%ADD31C,0.0260*%
%ADD32C,0.0236*%
%ADD33C,0.0400*%
G36*
X11899Y5456D02*
X11850Y5447D01*
X11838Y5476D01*
X11790Y5538D01*
X11727Y5586D01*
X11654Y5617D01*
X11636Y5619D01*
Y5324D01*
Y5030D01*
X11654Y5032D01*
X11727Y5062D01*
X11790Y5110D01*
X11838Y5173D01*
X11850Y5202D01*
X11899Y5192D01*
Y4581D01*
X11851Y4565D01*
X11814Y4614D01*
X11751Y4662D01*
X11678Y4692D01*
X11660Y4695D01*
Y4400D01*
Y4105D01*
X11678Y4108D01*
X11751Y4138D01*
X11814Y4186D01*
X11851Y4235D01*
X11899Y4219D01*
Y2600D01*
X11355D01*
Y2855D01*
X10645D01*
Y2600D01*
X9344D01*
X9312Y2639D01*
X9324Y2700D01*
X9307Y2786D01*
X9259Y2859D01*
X9186Y2907D01*
X9100Y2924D01*
X9014Y2907D01*
X8941Y2859D01*
X8893Y2786D01*
X8876Y2700D01*
X8888Y2639D01*
X8856Y2600D01*
X8766D01*
X8747Y2613D01*
X8700Y2622D01*
X4627D01*
X4611Y2670D01*
X4679Y2721D01*
X4741Y2803D01*
X4781Y2898D01*
X4794Y3000D01*
X4781Y3102D01*
X4741Y3197D01*
X4679Y3279D01*
X4597Y3341D01*
X4502Y3381D01*
X4400Y3394D01*
X4298Y3381D01*
X4203Y3341D01*
X4121Y3279D01*
X4059Y3197D01*
X4019Y3102D01*
X4006Y3000D01*
X4019Y2898D01*
X4059Y2803D01*
X4121Y2721D01*
X4189Y2670D01*
X4173Y2622D01*
X3751D01*
X1322Y5051D01*
Y11749D01*
X1551Y11978D01*
X3600D01*
X3647Y11987D01*
X3687Y12013D01*
X3687Y12013D01*
X3687Y12013D01*
X3887Y12213D01*
X3913Y12253D01*
X3922Y12300D01*
X3922Y12300D01*
X3922Y12300D01*
Y12300D01*
Y12617D01*
X3959Y12641D01*
X4007Y12714D01*
X4024Y12800D01*
X4007Y12886D01*
X3959Y12959D01*
X3886Y13007D01*
X3800Y13024D01*
X3714Y13007D01*
X3641Y12959D01*
X3625Y12934D01*
X3575D01*
X3559Y12959D01*
X3486Y13007D01*
X3450Y13014D01*
X3435Y13062D01*
X3737Y13363D01*
X3763Y13403D01*
X3772Y13450D01*
X3772Y13450D01*
X3772Y13450D01*
Y13450D01*
Y15001D01*
X3809Y15056D01*
X3824Y15130D01*
X3809Y15204D01*
X3767Y15267D01*
X3704Y15309D01*
X3630Y15324D01*
X3556Y15309D01*
X3493Y15267D01*
X3451Y15204D01*
X3437Y15134D01*
X3387D01*
X3379Y15174D01*
X3337Y15237D01*
X3274Y15279D01*
X3200Y15294D01*
X3126Y15279D01*
X3069Y15241D01*
X3038Y15253D01*
X3022Y15265D01*
X3017Y15290D01*
X2966Y15366D01*
X2890Y15417D01*
X2860Y15423D01*
Y15200D01*
Y14977D01*
X2890Y14983D01*
X2966Y15034D01*
X2971Y15042D01*
X3020Y15032D01*
X3021Y15026D01*
X3063Y14963D01*
X3078Y14953D01*
Y14251D01*
X2377Y13550D01*
X919D01*
X909Y13565D01*
X846Y13607D01*
X772Y13622D01*
X768Y13621D01*
X745Y13665D01*
X1495Y14415D01*
X1538Y14390D01*
X1517Y14321D01*
X1506Y14206D01*
X1517Y14090D01*
X1551Y13978D01*
X1606Y13875D01*
X1680Y13785D01*
X1770Y13711D01*
X1873Y13656D01*
X1984Y13623D01*
X2100Y13611D01*
X2216Y13623D01*
X2327Y13656D01*
X2430Y13711D01*
X2520Y13785D01*
X2594Y13875D01*
X2649Y13978D01*
X2683Y14090D01*
X2694Y14206D01*
X2683Y14321D01*
X2649Y14433D01*
X2594Y14536D01*
X2520Y14626D01*
X2430Y14700D01*
X2327Y14755D01*
X2216Y14788D01*
X2100Y14800D01*
X1984Y14788D01*
X1916Y14768D01*
X1890Y14811D01*
X4387Y17307D01*
X4387D01*
D01*
D01*
D01*
D01*
X4402Y17319D01*
X4497Y17359D01*
X4579Y17421D01*
X4641Y17503D01*
X4681Y17598D01*
X4694Y17700D01*
X4681Y17802D01*
X4641Y17897D01*
X4579Y17979D01*
X4497Y18041D01*
X4402Y18081D01*
X4300Y18094D01*
X4198Y18081D01*
X4103Y18041D01*
X4021Y17979D01*
X3959Y17897D01*
X3919Y17802D01*
X3906Y17700D01*
X3919Y17598D01*
X3959Y17503D01*
X4021Y17421D01*
X4067Y17386D01*
X4070Y17337D01*
X2451Y15717D01*
X2403Y15732D01*
X2401Y15743D01*
X2365Y15796D01*
X2375Y15845D01*
X2389Y15855D01*
X2431Y15918D01*
X2446Y15992D01*
X2431Y16066D01*
X2389Y16129D01*
X2326Y16171D01*
X2252Y16186D01*
X2178Y16171D01*
X2115Y16129D01*
X2073Y16066D01*
X2072Y16061D01*
X2022Y16066D01*
Y16649D01*
X3483Y18110D01*
X3500Y18106D01*
X3574Y18121D01*
X3637Y18163D01*
X3679Y18226D01*
X3694Y18300D01*
X3679Y18374D01*
X3637Y18437D01*
X3574Y18479D01*
X3500Y18494D01*
X3426Y18479D01*
X3363Y18437D01*
X3321Y18374D01*
X3306Y18300D01*
X3310Y18283D01*
X3211Y18184D01*
X3172Y18215D01*
X3179Y18226D01*
X3194Y18300D01*
X3179Y18374D01*
X3137Y18437D01*
X3074Y18479D01*
X3000Y18494D01*
X2926Y18479D01*
X2863Y18437D01*
X2821Y18374D01*
X2806Y18300D01*
X2821Y18226D01*
X2863Y18163D01*
X2926Y18121D01*
X3000Y18106D01*
X3074Y18121D01*
X3085Y18128D01*
X3116Y18089D01*
X1813Y16787D01*
X1787Y16747D01*
X1781Y16715D01*
X1731D01*
X1729Y16724D01*
X1687Y16787D01*
X1631Y16825D01*
X1641Y16874D01*
X1690Y16883D01*
X1766Y16934D01*
X1817Y17010D01*
X1823Y17040D01*
X1377D01*
X1383Y17010D01*
X1434Y16934D01*
X1510Y16883D01*
X1500Y16834D01*
X1476Y16829D01*
X1413Y16787D01*
X1371Y16724D01*
X1356Y16650D01*
X1371Y16576D01*
X1413Y16513D01*
X1476Y16471D01*
X1550Y16456D01*
X1624Y16471D01*
X1687Y16513D01*
X1729Y16576D01*
X1778Y16566D01*
Y16234D01*
X1729Y16224D01*
X1687Y16287D01*
X1624Y16329D01*
X1550Y16344D01*
X1476Y16329D01*
X1413Y16287D01*
X1371Y16224D01*
X1356Y16150D01*
X1371Y16076D01*
X1413Y16013D01*
X1476Y15971D01*
X1550Y15956D01*
X1624Y15971D01*
X1687Y16013D01*
X1729Y16076D01*
X1778Y16066D01*
Y15991D01*
X1778Y15991D01*
X1778D01*
X1787Y15944D01*
X1813Y15904D01*
X2032Y15686D01*
X2028Y15669D01*
X2043Y15595D01*
X2085Y15532D01*
X2148Y15490D01*
X2159Y15488D01*
X2173Y15440D01*
X346Y13613D01*
X300Y13632D01*
Y14169D01*
X339Y14201D01*
X356Y14197D01*
Y14420D01*
Y14643D01*
X339Y14639D01*
X300Y14671D01*
Y15706D01*
X374Y15721D01*
X437Y15763D01*
X479Y15826D01*
X494Y15900D01*
X479Y15974D01*
X437Y16037D01*
X374Y16079D01*
X300Y16094D01*
Y18674D01*
X348Y18688D01*
X368Y18658D01*
X431Y18616D01*
X505Y18602D01*
X579Y18616D01*
X606Y18634D01*
X650Y18611D01*
Y15523D01*
X611Y15492D01*
X600Y15494D01*
X526Y15479D01*
X463Y15437D01*
X421Y15374D01*
X406Y15300D01*
X421Y15226D01*
X463Y15163D01*
X526Y15121D01*
X600Y15106D01*
X674Y15121D01*
X737Y15163D01*
X758Y15194D01*
X787Y15213D01*
X859Y15286D01*
X885Y15325D01*
X894Y15372D01*
Y19021D01*
X1251Y19378D01*
X1633D01*
Y19378D01*
Y19355D01*
X1633Y19342D01*
X1633Y19342D01*
X1633D01*
Y18645D01*
X2343D01*
Y19342D01*
X2343Y19342D01*
D01*
D01*
X2343Y19355D01*
D01*
X2366Y19378D01*
X2843D01*
X2853Y19329D01*
X2809Y19310D01*
X2735Y19253D01*
X2678Y19179D01*
X2642Y19093D01*
X2630Y19000D01*
X2642Y18907D01*
X2678Y18821D01*
X2735Y18747D01*
X2809Y18690D01*
X2895Y18654D01*
X2988Y18642D01*
X3081Y18654D01*
X3167Y18690D01*
X3242Y18747D01*
X3299Y18821D01*
X3334Y18907D01*
X3347Y19000D01*
X3334Y19093D01*
X3299Y19179D01*
X3242Y19253D01*
X3167Y19310D01*
X3123Y19329D01*
X3133Y19378D01*
X3855D01*
X3865Y19329D01*
X3821Y19310D01*
X3747Y19253D01*
X3690Y19179D01*
X3654Y19093D01*
X3642Y19000D01*
X3654Y18907D01*
X3690Y18821D01*
X3747Y18747D01*
X3821Y18690D01*
X3907Y18654D01*
X4000Y18642D01*
X4093Y18654D01*
X4179Y18690D01*
X4253Y18747D01*
X4310Y18821D01*
X4346Y18907D01*
X4358Y19000D01*
X4346Y19093D01*
X4310Y19179D01*
X4253Y19253D01*
X4179Y19310D01*
X4135Y19329D01*
X4145Y19378D01*
X4855D01*
X4865Y19329D01*
X4821Y19310D01*
X4747Y19253D01*
X4690Y19179D01*
X4654Y19093D01*
X4642Y19000D01*
X4654Y18907D01*
X4690Y18821D01*
X4747Y18747D01*
X4821Y18690D01*
X4907Y18654D01*
X5000Y18642D01*
X5093Y18654D01*
X5179Y18690D01*
X5253Y18747D01*
X5310Y18821D01*
X5346Y18907D01*
X5358Y19000D01*
X5346Y19093D01*
X5310Y19179D01*
X5253Y19253D01*
X5179Y19310D01*
X5135Y19329D01*
X5145Y19378D01*
X5855D01*
X5865Y19329D01*
X5821Y19310D01*
X5747Y19253D01*
X5690Y19179D01*
X5654Y19093D01*
X5642Y19000D01*
X5654Y18907D01*
X5690Y18821D01*
X5747Y18747D01*
X5821Y18690D01*
X5907Y18654D01*
X6000Y18642D01*
X6093Y18654D01*
X6179Y18690D01*
X6253Y18747D01*
X6310Y18821D01*
X6346Y18907D01*
X6358Y19000D01*
X6346Y19093D01*
X6310Y19179D01*
X6253Y19253D01*
X6179Y19310D01*
X6135Y19329D01*
X6145Y19378D01*
X6855D01*
X6865Y19329D01*
X6821Y19310D01*
X6747Y19253D01*
X6690Y19179D01*
X6654Y19093D01*
X6642Y19000D01*
X6654Y18907D01*
X6690Y18821D01*
X6747Y18747D01*
X6821Y18690D01*
X6907Y18654D01*
X7000Y18642D01*
X7093Y18654D01*
X7179Y18690D01*
X7253Y18747D01*
X7310Y18821D01*
X7346Y18907D01*
X7358Y19000D01*
X7346Y19093D01*
X7310Y19179D01*
X7253Y19253D01*
X7179Y19310D01*
X7135Y19329D01*
X7145Y19378D01*
X7855D01*
X7865Y19329D01*
X7821Y19310D01*
X7747Y19253D01*
X7690Y19179D01*
X7654Y19093D01*
X7642Y19000D01*
X7654Y18907D01*
X7690Y18821D01*
X7747Y18747D01*
X7821Y18690D01*
X7907Y18654D01*
X8000Y18642D01*
X8093Y18654D01*
X8179Y18690D01*
X8253Y18747D01*
X8310Y18821D01*
X8346Y18907D01*
X8358Y19000D01*
X8346Y19093D01*
X8310Y19179D01*
X8253Y19253D01*
X8179Y19310D01*
X8135Y19329D01*
X8145Y19378D01*
X8855D01*
X8865Y19329D01*
X8821Y19310D01*
X8747Y19253D01*
X8690Y19179D01*
X8654Y19093D01*
X8642Y19000D01*
X8654Y18907D01*
X8690Y18821D01*
X8747Y18747D01*
X8821Y18690D01*
X8907Y18654D01*
X9000Y18642D01*
X9093Y18654D01*
X9179Y18690D01*
X9253Y18747D01*
X9310Y18821D01*
X9346Y18907D01*
X9358Y19000D01*
X9346Y19093D01*
X9310Y19179D01*
X9253Y19253D01*
X9179Y19310D01*
X9135Y19329D01*
X9145Y19378D01*
X9449D01*
X9677Y19150D01*
X9654Y19093D01*
X9642Y19000D01*
X9654Y18907D01*
X9690Y18821D01*
X9747Y18747D01*
X9821Y18690D01*
X9907Y18654D01*
X10000Y18642D01*
X10093Y18654D01*
X10179Y18690D01*
X10253Y18747D01*
X10310Y18821D01*
X10346Y18907D01*
X10358Y19000D01*
X10346Y19093D01*
X10310Y19179D01*
X10253Y19253D01*
X10179Y19310D01*
X10093Y19346D01*
X10063Y19350D01*
X10066Y19400D01*
X10934D01*
X10937Y19350D01*
X10907Y19346D01*
X10821Y19310D01*
X10747Y19253D01*
X10690Y19179D01*
X10654Y19093D01*
X10642Y19000D01*
X10654Y18907D01*
X10690Y18821D01*
X10747Y18747D01*
X10821Y18690D01*
X10907Y18654D01*
X11000Y18642D01*
X11093Y18654D01*
X11179Y18690D01*
X11253Y18747D01*
X11310Y18821D01*
X11346Y18907D01*
X11358Y19000D01*
X11346Y19093D01*
X11310Y19179D01*
X11253Y19253D01*
X11179Y19310D01*
X11093Y19346D01*
X11063Y19350D01*
X11066Y19400D01*
X11899D01*
Y5456D01*
D02*
G37*
%LPC*%
G36*
X10300Y6994D02*
X10226Y6979D01*
X10163Y6937D01*
X10121Y6874D01*
X10106Y6800D01*
X10121Y6726D01*
X10163Y6663D01*
X10226Y6621D01*
X10300Y6606D01*
X10374Y6621D01*
X10437Y6663D01*
X10479Y6726D01*
X10494Y6800D01*
X10479Y6874D01*
X10437Y6937D01*
X10374Y6979D01*
X10300Y6994D01*
D02*
G37*
G36*
X9800Y6794D02*
X9698Y6781D01*
X9603Y6741D01*
X9521Y6679D01*
X9459Y6597D01*
X9419Y6502D01*
X9406Y6400D01*
X9419Y6298D01*
X9459Y6203D01*
X9521Y6121D01*
X9603Y6059D01*
X9698Y6019D01*
X9800Y6006D01*
X9902Y6019D01*
X9997Y6059D01*
X10079Y6121D01*
X10141Y6203D01*
X10181Y6298D01*
X10194Y6400D01*
X10181Y6502D01*
X10141Y6597D01*
X10079Y6679D01*
X9997Y6741D01*
X9902Y6781D01*
X9800Y6794D01*
D02*
G37*
G36*
X4600Y7358D02*
X4507Y7346D01*
X4421Y7310D01*
X4347Y7253D01*
X4290Y7179D01*
X4254Y7093D01*
X4242Y7000D01*
X4254Y6907D01*
X4290Y6821D01*
X4347Y6747D01*
X4421Y6690D01*
X4507Y6654D01*
X4600Y6642D01*
X4693Y6654D01*
X4779Y6690D01*
X4853Y6747D01*
X4910Y6821D01*
X4946Y6907D01*
X4958Y7000D01*
X4946Y7093D01*
X4910Y7179D01*
X4853Y7253D01*
X4779Y7310D01*
X4693Y7346D01*
X4600Y7358D01*
D02*
G37*
G36*
X8700D02*
X8607Y7346D01*
X8521Y7310D01*
X8447Y7253D01*
X8390Y7179D01*
X8354Y7093D01*
X8342Y7000D01*
X8354Y6907D01*
X8390Y6821D01*
X8447Y6747D01*
X8521Y6690D01*
X8607Y6654D01*
X8700Y6642D01*
X8793Y6654D01*
X8879Y6690D01*
X8953Y6747D01*
X9010Y6821D01*
X9046Y6907D01*
X9058Y7000D01*
X9046Y7093D01*
X9010Y7179D01*
X8953Y7253D01*
X8879Y7310D01*
X8793Y7346D01*
X8700Y7358D01*
D02*
G37*
G36*
X7600D02*
X7507Y7346D01*
X7421Y7310D01*
X7347Y7253D01*
X7290Y7179D01*
X7254Y7093D01*
X7242Y7000D01*
X7254Y6907D01*
X7290Y6821D01*
X7347Y6747D01*
X7421Y6690D01*
X7507Y6654D01*
X7600Y6642D01*
X7693Y6654D01*
X7779Y6690D01*
X7853Y6747D01*
X7910Y6821D01*
X7946Y6907D01*
X7958Y7000D01*
X7946Y7093D01*
X7910Y7179D01*
X7853Y7253D01*
X7779Y7310D01*
X7693Y7346D01*
X7600Y7358D01*
D02*
G37*
G36*
X11516Y5619D02*
X11497Y5617D01*
X11424Y5586D01*
X11362Y5538D01*
X11314Y5476D01*
X11283Y5403D01*
X11281Y5384D01*
X11516D01*
Y5619D01*
D02*
G37*
G36*
X11000Y5724D02*
X10914Y5707D01*
X10841Y5659D01*
X10793Y5586D01*
X10776Y5500D01*
X10793Y5414D01*
X10841Y5341D01*
X10914Y5293D01*
X11000Y5276D01*
X11086Y5293D01*
X11159Y5341D01*
X11207Y5414D01*
X11224Y5500D01*
X11207Y5586D01*
X11159Y5659D01*
X11086Y5707D01*
X11000Y5724D01*
D02*
G37*
G36*
X7600Y6358D02*
X7507Y6346D01*
X7421Y6310D01*
X7347Y6253D01*
X7290Y6179D01*
X7254Y6093D01*
X7242Y6000D01*
X7254Y5907D01*
X7290Y5821D01*
X7347Y5747D01*
X7421Y5690D01*
X7507Y5654D01*
X7600Y5642D01*
X7693Y5654D01*
X7779Y5690D01*
X7853Y5747D01*
X7910Y5821D01*
X7946Y5907D01*
X7958Y6000D01*
X7946Y6093D01*
X7910Y6179D01*
X7853Y6253D01*
X7779Y6310D01*
X7693Y6346D01*
X7600Y6358D01*
D02*
G37*
G36*
X9055Y6355D02*
X8345D01*
Y5645D01*
X9055D01*
Y6355D01*
D02*
G37*
G36*
X4955D02*
X4245D01*
Y5645D01*
X4955D01*
Y6355D01*
D02*
G37*
G36*
X11795Y7640D02*
X11560D01*
Y7405D01*
X11578Y7408D01*
X11651Y7438D01*
X11714Y7486D01*
X11762Y7549D01*
X11792Y7622D01*
X11795Y7640D01*
D02*
G37*
G36*
X4300Y9324D02*
X4214Y9307D01*
X4141Y9259D01*
X4093Y9186D01*
X4076Y9100D01*
X4093Y9014D01*
X4141Y8941D01*
X4214Y8893D01*
X4300Y8876D01*
X4386Y8893D01*
X4459Y8941D01*
X4507Y9014D01*
X4524Y9100D01*
X4507Y9186D01*
X4459Y9259D01*
X4386Y9307D01*
X4300Y9324D01*
D02*
G37*
G36*
X9700Y9458D02*
X9607Y9446D01*
X9521Y9410D01*
X9447Y9353D01*
X9390Y9279D01*
X9354Y9193D01*
X9342Y9100D01*
X9354Y9007D01*
X9390Y8921D01*
X9447Y8847D01*
X9521Y8790D01*
X9607Y8754D01*
X9700Y8742D01*
X9793Y8754D01*
X9879Y8790D01*
X9953Y8847D01*
X10010Y8921D01*
X10046Y9007D01*
X10058Y9100D01*
X10046Y9193D01*
X10010Y9279D01*
X9953Y9353D01*
X9879Y9410D01*
X9793Y9446D01*
X9700Y9458D01*
D02*
G37*
G36*
X5500Y9324D02*
X5414Y9307D01*
X5341Y9259D01*
X5293Y9186D01*
X5276Y9100D01*
X5293Y9014D01*
X5341Y8941D01*
X5414Y8893D01*
X5500Y8876D01*
X5586Y8893D01*
X5659Y8941D01*
X5707Y9014D01*
X5724Y9100D01*
X5707Y9186D01*
X5659Y9259D01*
X5586Y9307D01*
X5500Y9324D01*
D02*
G37*
G36*
X2904Y10899D02*
X2728Y10882D01*
X2560Y10831D01*
X2404Y10748D01*
X2268Y10636D01*
X2156Y10500D01*
X2073Y10344D01*
X2022Y10175D01*
X2005Y10000D01*
X2022Y9825D01*
X2073Y9656D01*
X2156Y9500D01*
X2268Y9364D01*
X2404Y9252D01*
X2560Y9169D01*
X2728Y9118D01*
X2904Y9101D01*
X3079Y9118D01*
X3248Y9169D01*
X3404Y9252D01*
X3540Y9364D01*
X3652Y9500D01*
X3735Y9656D01*
X3786Y9825D01*
X3803Y10000D01*
X3786Y10175D01*
X3735Y10344D01*
X3652Y10500D01*
X3540Y10636D01*
X3404Y10748D01*
X3248Y10831D01*
X3079Y10882D01*
X2904Y10899D01*
D02*
G37*
G36*
X6500Y9324D02*
X6414Y9307D01*
X6341Y9259D01*
X6293Y9186D01*
X6276Y9100D01*
X6293Y9014D01*
X6341Y8941D01*
X6414Y8893D01*
X6500Y8876D01*
X6586Y8893D01*
X6659Y8941D01*
X6707Y9014D01*
X6724Y9100D01*
X6707Y9186D01*
X6659Y9259D01*
X6586Y9307D01*
X6500Y9324D01*
D02*
G37*
G36*
X11560Y7995D02*
Y7760D01*
X11795D01*
X11792Y7778D01*
X11762Y7851D01*
X11714Y7914D01*
X11651Y7962D01*
X11578Y7992D01*
X11560Y7995D01*
D02*
G37*
G36*
X8700Y8358D02*
X8607Y8346D01*
X8521Y8310D01*
X8447Y8253D01*
X8390Y8179D01*
X8354Y8093D01*
X8342Y8000D01*
X8354Y7907D01*
X8390Y7821D01*
X8447Y7747D01*
X8521Y7690D01*
X8607Y7654D01*
X8700Y7642D01*
X8793Y7654D01*
X8879Y7690D01*
X8953Y7747D01*
X9010Y7821D01*
X9046Y7907D01*
X9058Y8000D01*
X9046Y8093D01*
X9010Y8179D01*
X8953Y8253D01*
X8879Y8310D01*
X8793Y8346D01*
X8700Y8358D01*
D02*
G37*
G36*
X11440Y7995D02*
X11422Y7992D01*
X11349Y7962D01*
X11286Y7914D01*
X11238Y7851D01*
X11230Y7832D01*
X11180Y7827D01*
X11159Y7859D01*
X11086Y7907D01*
X11000Y7924D01*
X10914Y7907D01*
X10841Y7859D01*
X10793Y7786D01*
X10776Y7700D01*
X10793Y7614D01*
X10841Y7541D01*
X10914Y7493D01*
X11000Y7476D01*
X11086Y7493D01*
X11159Y7541D01*
X11180Y7573D01*
X11230Y7568D01*
X11238Y7549D01*
X11286Y7486D01*
X11349Y7438D01*
X11422Y7408D01*
X11440Y7405D01*
Y7700D01*
Y7995D01*
D02*
G37*
G36*
X8700Y9458D02*
X8607Y9446D01*
X8521Y9410D01*
X8447Y9353D01*
X8390Y9279D01*
X8354Y9193D01*
X8342Y9100D01*
X8354Y9007D01*
X8390Y8921D01*
X8447Y8847D01*
X8521Y8790D01*
X8607Y8754D01*
X8700Y8742D01*
X8793Y8754D01*
X8879Y8790D01*
X8953Y8847D01*
X9010Y8921D01*
X9046Y9007D01*
X9058Y9100D01*
X9046Y9193D01*
X9010Y9279D01*
X8953Y9353D01*
X8879Y9410D01*
X8793Y9446D01*
X8700Y9458D01*
D02*
G37*
G36*
X10700Y8924D02*
X10614Y8907D01*
X10541Y8859D01*
X10493Y8786D01*
X10476Y8700D01*
X10493Y8614D01*
X10541Y8541D01*
X10614Y8493D01*
X10700Y8476D01*
X10786Y8493D01*
X10859Y8541D01*
X10907Y8614D01*
X10924Y8700D01*
X10907Y8786D01*
X10859Y8859D01*
X10786Y8907D01*
X10700Y8924D01*
D02*
G37*
G36*
X9728Y5596D02*
X9642Y5579D01*
X9569Y5531D01*
X9521Y5458D01*
X9504Y5372D01*
X9521Y5286D01*
X9569Y5213D01*
X9642Y5165D01*
X9728Y5148D01*
X9814Y5165D01*
X9887Y5213D01*
X9935Y5286D01*
X9952Y5372D01*
X9935Y5458D01*
X9887Y5531D01*
X9814Y5579D01*
X9728Y5596D01*
D02*
G37*
G36*
X8800Y4324D02*
X8714Y4307D01*
X8641Y4259D01*
X8593Y4186D01*
X8576Y4100D01*
X8593Y4014D01*
X8641Y3941D01*
X8714Y3893D01*
X8800Y3876D01*
X8886Y3893D01*
X8959Y3941D01*
X9007Y4014D01*
X9024Y4100D01*
X9007Y4186D01*
X8959Y4259D01*
X8886Y4307D01*
X8800Y4324D01*
D02*
G37*
G36*
X10370Y4294D02*
X10284Y4277D01*
X10211Y4229D01*
X10163Y4156D01*
X10146Y4070D01*
X10163Y3984D01*
X10211Y3911D01*
X10284Y3863D01*
X10370Y3846D01*
X10456Y3863D01*
X10529Y3911D01*
X10577Y3984D01*
X10594Y4070D01*
X10577Y4156D01*
X10529Y4229D01*
X10456Y4277D01*
X10370Y4294D01*
D02*
G37*
G36*
X3340Y4140D02*
X3146D01*
X3147Y4132D01*
X3173Y4069D01*
X3215Y4015D01*
X3269Y3973D01*
X3332Y3947D01*
X3340Y3946D01*
Y4140D01*
D02*
G37*
G36*
X2800Y4424D02*
X2714Y4407D01*
X2641Y4359D01*
X2593Y4286D01*
X2576Y4200D01*
X2593Y4114D01*
X2641Y4041D01*
X2714Y3993D01*
X2800Y3976D01*
X2886Y3993D01*
X2959Y4041D01*
X3007Y4114D01*
X3024Y4200D01*
X3007Y4286D01*
X2959Y4359D01*
X2886Y4407D01*
X2800Y4424D01*
D02*
G37*
G36*
X3654Y4140D02*
X3460D01*
Y3946D01*
X3468Y3947D01*
X3531Y3973D01*
X3585Y4015D01*
X3627Y4069D01*
X3653Y4132D01*
X3654Y4140D01*
D02*
G37*
G36*
X5500Y3324D02*
X5414Y3307D01*
X5341Y3259D01*
X5293Y3186D01*
X5276Y3100D01*
X5293Y3014D01*
X5341Y2941D01*
X5414Y2893D01*
X5500Y2876D01*
X5586Y2893D01*
X5659Y2941D01*
X5707Y3014D01*
X5724Y3100D01*
X5707Y3186D01*
X5659Y3259D01*
X5586Y3307D01*
X5500Y3324D01*
D02*
G37*
G36*
X9500Y3224D02*
X9414Y3207D01*
X9341Y3159D01*
X9293Y3086D01*
X9276Y3000D01*
X9293Y2914D01*
X9341Y2841D01*
X9414Y2793D01*
X9500Y2776D01*
X9586Y2793D01*
X9659Y2841D01*
X9707Y2914D01*
X9724Y3000D01*
X9707Y3086D01*
X9659Y3159D01*
X9586Y3207D01*
X9500Y3224D01*
D02*
G37*
G36*
X11000Y3858D02*
X10907Y3846D01*
X10821Y3810D01*
X10747Y3753D01*
X10690Y3679D01*
X10654Y3593D01*
X10642Y3500D01*
X10654Y3407D01*
X10690Y3321D01*
X10747Y3247D01*
X10821Y3190D01*
X10907Y3154D01*
X11000Y3142D01*
X11093Y3154D01*
X11179Y3190D01*
X11253Y3247D01*
X11310Y3321D01*
X11346Y3407D01*
X11358Y3500D01*
X11346Y3593D01*
X11310Y3679D01*
X11253Y3753D01*
X11179Y3810D01*
X11093Y3846D01*
X11000Y3858D01*
D02*
G37*
G36*
X9200Y3624D02*
X9114Y3607D01*
X9041Y3559D01*
X8993Y3486D01*
X8976Y3400D01*
X8993Y3314D01*
X9041Y3241D01*
X9114Y3193D01*
X9200Y3176D01*
X9286Y3193D01*
X9359Y3241D01*
X9407Y3314D01*
X9424Y3400D01*
X9407Y3486D01*
X9359Y3559D01*
X9286Y3607D01*
X9200Y3624D01*
D02*
G37*
G36*
X7600D02*
X7514Y3607D01*
X7441Y3559D01*
X7393Y3486D01*
X7376Y3400D01*
X7393Y3314D01*
X7441Y3241D01*
X7514Y3193D01*
X7600Y3176D01*
X7686Y3193D01*
X7759Y3241D01*
X7807Y3314D01*
X7824Y3400D01*
X7807Y3486D01*
X7759Y3559D01*
X7686Y3607D01*
X7600Y3624D01*
D02*
G37*
G36*
X11540Y4340D02*
X11305D01*
X11308Y4322D01*
X11338Y4249D01*
X11386Y4186D01*
X11449Y4138D01*
X11522Y4108D01*
X11540Y4105D01*
Y4340D01*
D02*
G37*
G36*
X10554Y4840D02*
X10360D01*
Y4646D01*
X10368Y4647D01*
X10431Y4673D01*
X10485Y4715D01*
X10527Y4769D01*
X10553Y4832D01*
X10554Y4840D01*
D02*
G37*
G36*
X10240D02*
X10046D01*
X10047Y4832D01*
X10073Y4769D01*
X10115Y4715D01*
X10169Y4673D01*
X10232Y4647D01*
X10240Y4646D01*
Y4840D01*
D02*
G37*
G36*
Y5154D02*
X10232Y5153D01*
X10169Y5127D01*
X10115Y5085D01*
X10073Y5031D01*
X10047Y4968D01*
X10046Y4960D01*
X10240D01*
Y5154D01*
D02*
G37*
G36*
X11516Y5264D02*
X11281D01*
X11283Y5246D01*
X11314Y5173D01*
X11362Y5110D01*
X11424Y5062D01*
X11497Y5032D01*
X11516Y5030D01*
Y5264D01*
D02*
G37*
G36*
X10360Y5154D02*
Y4960D01*
X10554D01*
X10553Y4968D01*
X10527Y5031D01*
X10485Y5085D01*
X10431Y5127D01*
X10368Y5153D01*
X10360Y5154D01*
D02*
G37*
G36*
X3460Y4454D02*
Y4260D01*
X3654D01*
X3653Y4268D01*
X3627Y4331D01*
X3585Y4385D01*
X3531Y4427D01*
X3468Y4453D01*
X3460Y4454D01*
D02*
G37*
G36*
X3340D02*
X3332Y4453D01*
X3269Y4427D01*
X3215Y4385D01*
X3173Y4331D01*
X3147Y4268D01*
X3146Y4260D01*
X3340D01*
Y4454D01*
D02*
G37*
G36*
X8400Y4824D02*
X8314Y4807D01*
X8241Y4759D01*
X8193Y4686D01*
X8176Y4600D01*
X8193Y4514D01*
X8241Y4441D01*
X8314Y4393D01*
X8400Y4376D01*
X8486Y4393D01*
X8559Y4441D01*
X8607Y4514D01*
X8624Y4600D01*
X8607Y4686D01*
X8559Y4759D01*
X8486Y4807D01*
X8400Y4824D01*
D02*
G37*
G36*
X6841Y5066D02*
X6756Y5049D01*
X6683Y5000D01*
X6634Y4927D01*
X6617Y4841D01*
X6634Y4756D01*
X6683Y4683D01*
X6756Y4634D01*
X6841Y4617D01*
X6927Y4634D01*
X7000Y4683D01*
X7049Y4756D01*
X7066Y4841D01*
X7049Y4927D01*
X7000Y5000D01*
X6927Y5049D01*
X6841Y5066D01*
D02*
G37*
G36*
X11000Y5194D02*
X10898Y5181D01*
X10803Y5141D01*
X10721Y5079D01*
X10659Y4997D01*
X10619Y4902D01*
X10606Y4800D01*
X10619Y4698D01*
X10659Y4603D01*
X10721Y4521D01*
X10803Y4459D01*
X10898Y4419D01*
X11000Y4406D01*
X11102Y4419D01*
X11197Y4459D01*
X11271Y4515D01*
X11310Y4485D01*
X11308Y4478D01*
X11305Y4460D01*
X11540D01*
Y4695D01*
X11522Y4692D01*
X11449Y4662D01*
X11404Y4628D01*
X11364Y4658D01*
X11381Y4698D01*
X11394Y4800D01*
X11381Y4902D01*
X11341Y4997D01*
X11279Y5079D01*
X11197Y5141D01*
X11102Y5181D01*
X11000Y5194D01*
D02*
G37*
G36*
X5405Y16986D02*
X5335Y16973D01*
X5276Y16933D01*
X5237Y16874D01*
X5223Y16805D01*
X5237Y16735D01*
X5276Y16676D01*
X5335Y16637D01*
X5405Y16623D01*
X5474Y16637D01*
X5533Y16676D01*
X5573Y16735D01*
X5586Y16805D01*
X5573Y16874D01*
X5533Y16933D01*
X5474Y16973D01*
X5405Y16986D01*
D02*
G37*
G36*
X7300Y17370D02*
X7198Y17357D01*
X7103Y17318D01*
X7021Y17255D01*
X6959Y17173D01*
X6919Y17078D01*
X6906Y16976D01*
X6919Y16874D01*
X6959Y16779D01*
X7021Y16698D01*
X7103Y16635D01*
X7198Y16596D01*
X7300Y16582D01*
X7402Y16596D01*
X7497Y16635D01*
X7579Y16698D01*
X7641Y16779D01*
X7681Y16874D01*
X7694Y16976D01*
X7681Y17078D01*
X7641Y17173D01*
X7579Y17255D01*
X7497Y17318D01*
X7402Y17357D01*
X7300Y17370D01*
D02*
G37*
G36*
X5995Y16986D02*
X5926Y16973D01*
X5867Y16933D01*
X5828Y16874D01*
X5814Y16805D01*
X5828Y16735D01*
X5867Y16676D01*
X5926Y16637D01*
X5995Y16623D01*
X6065Y16637D01*
X6124Y16676D01*
X6163Y16735D01*
X6177Y16805D01*
X6163Y16874D01*
X6124Y16933D01*
X6065Y16973D01*
X5995Y16986D01*
D02*
G37*
G36*
X3440Y17140D02*
X3277D01*
X3283Y17110D01*
X3334Y17034D01*
X3410Y16983D01*
X3440Y16977D01*
Y17140D01*
D02*
G37*
G36*
X5700Y17282D02*
X5631Y17268D01*
X5572Y17228D01*
X5532Y17169D01*
X5518Y17100D01*
X5532Y17031D01*
X5572Y16972D01*
X5631Y16932D01*
X5700Y16918D01*
X5769Y16932D01*
X5828Y16972D01*
X5868Y17031D01*
X5882Y17100D01*
X5868Y17169D01*
X5828Y17228D01*
X5769Y17268D01*
X5700Y17282D01*
D02*
G37*
G36*
X2740Y15423D02*
X2710Y15417D01*
X2634Y15366D01*
X2583Y15290D01*
X2577Y15260D01*
X2740D01*
Y15423D01*
D02*
G37*
G36*
X8776Y15894D02*
X8674Y15881D01*
X8579Y15841D01*
X8498Y15779D01*
X8435Y15697D01*
X8396Y15602D01*
X8382Y15500D01*
X8396Y15398D01*
X8435Y15303D01*
X8498Y15221D01*
X8579Y15159D01*
X8674Y15119D01*
X8776Y15106D01*
X8878Y15119D01*
X8973Y15159D01*
X9055Y15221D01*
X9118Y15303D01*
X9157Y15398D01*
X9170Y15500D01*
X9157Y15602D01*
X9118Y15697D01*
X9055Y15779D01*
X8973Y15841D01*
X8878Y15881D01*
X8776Y15894D01*
D02*
G37*
G36*
X5828Y16122D02*
X5754Y16107D01*
X5691Y16065D01*
X5649Y16002D01*
X5634Y15928D01*
X5649Y15854D01*
X5691Y15791D01*
X5754Y15749D01*
X5828Y15734D01*
X5850Y15739D01*
X5891Y15711D01*
X5905Y15642D01*
X5947Y15579D01*
X6010Y15537D01*
X6084Y15522D01*
X6158Y15537D01*
X6221Y15579D01*
X6263Y15642D01*
X6278Y15716D01*
X6263Y15790D01*
X6221Y15853D01*
X6158Y15895D01*
X6084Y15910D01*
X6062Y15906D01*
X6021Y15933D01*
X6007Y16002D01*
X5965Y16065D01*
X5902Y16107D01*
X5828Y16122D01*
D02*
G37*
G36*
X11355Y16855D02*
X10645D01*
Y16145D01*
X11355D01*
Y16855D01*
D02*
G37*
G36*
X9000Y16294D02*
X8926Y16279D01*
X8863Y16237D01*
X8821Y16174D01*
X8806Y16100D01*
X8821Y16026D01*
X8863Y15963D01*
X8926Y15921D01*
X9000Y15906D01*
X9074Y15921D01*
X9137Y15963D01*
X9179Y16026D01*
X9194Y16100D01*
X9179Y16174D01*
X9137Y16237D01*
X9074Y16279D01*
X9000Y16294D01*
D02*
G37*
G36*
X3723Y17140D02*
X3560D01*
Y16977D01*
X3590Y16983D01*
X3666Y17034D01*
X3717Y17110D01*
X3723Y17140D01*
D02*
G37*
G36*
X3560Y17423D02*
Y17260D01*
X3723D01*
X3717Y17290D01*
X3666Y17366D01*
X3590Y17417D01*
X3560Y17423D01*
D02*
G37*
G36*
X3440D02*
X3410Y17417D01*
X3334Y17366D01*
X3283Y17290D01*
X3277Y17260D01*
X3440D01*
Y17423D01*
D02*
G37*
G36*
X6784Y17678D02*
X6710Y17663D01*
X6647Y17621D01*
X6605Y17558D01*
X6590Y17484D01*
X6605Y17410D01*
X6647Y17347D01*
X6710Y17305D01*
X6784Y17290D01*
X6858Y17305D01*
X6921Y17347D01*
X6963Y17410D01*
X6978Y17484D01*
X6963Y17558D01*
X6921Y17621D01*
X6858Y17663D01*
X6784Y17678D01*
D02*
G37*
G36*
X1900Y18294D02*
X1798Y18281D01*
X1703Y18241D01*
X1621Y18179D01*
X1559Y18097D01*
X1519Y18002D01*
X1506Y17900D01*
X1519Y17798D01*
X1559Y17703D01*
X1621Y17621D01*
X1703Y17559D01*
X1798Y17519D01*
X1900Y17506D01*
X2002Y17519D01*
X2097Y17559D01*
X2179Y17621D01*
X2241Y17703D01*
X2281Y17798D01*
X2294Y17900D01*
X2281Y18002D01*
X2241Y18097D01*
X2179Y18179D01*
X2097Y18241D01*
X2002Y18281D01*
X1900Y18294D01*
D02*
G37*
G36*
X9900Y18094D02*
X9798Y18081D01*
X9703Y18041D01*
X9621Y17979D01*
X9559Y17897D01*
X9519Y17802D01*
X9506Y17700D01*
X9519Y17598D01*
X9559Y17503D01*
X9621Y17421D01*
X9703Y17359D01*
X9798Y17319D01*
X9900Y17306D01*
X10002Y17319D01*
X10097Y17359D01*
X10179Y17421D01*
X10241Y17503D01*
X10281Y17598D01*
X10294Y17700D01*
X10281Y17802D01*
X10241Y17897D01*
X10179Y17979D01*
X10097Y18041D01*
X10002Y18081D01*
X9900Y18094D01*
D02*
G37*
G36*
X1540Y17323D02*
X1510Y17317D01*
X1434Y17266D01*
X1383Y17190D01*
X1377Y17160D01*
X1540D01*
Y17323D01*
D02*
G37*
G36*
X11000Y17858D02*
X10907Y17846D01*
X10821Y17810D01*
X10747Y17753D01*
X10690Y17679D01*
X10654Y17593D01*
X10642Y17500D01*
X10654Y17407D01*
X10690Y17321D01*
X10747Y17247D01*
X10821Y17190D01*
X10907Y17154D01*
X11000Y17142D01*
X11093Y17154D01*
X11179Y17190D01*
X11253Y17247D01*
X11310Y17321D01*
X11346Y17407D01*
X11358Y17500D01*
X11346Y17593D01*
X11310Y17679D01*
X11253Y17753D01*
X11179Y17810D01*
X11093Y17846D01*
X11000Y17858D01*
D02*
G37*
G36*
X1660Y17323D02*
Y17160D01*
X1823D01*
X1817Y17190D01*
X1766Y17266D01*
X1690Y17317D01*
X1660Y17323D01*
D02*
G37*
G36*
X5995Y17577D02*
X5926Y17563D01*
X5867Y17524D01*
X5828Y17465D01*
X5814Y17395D01*
X5828Y17326D01*
X5867Y17267D01*
X5926Y17227D01*
X5995Y17214D01*
X6065Y17227D01*
X6124Y17267D01*
X6163Y17326D01*
X6177Y17395D01*
X6163Y17465D01*
X6124Y17524D01*
X6065Y17563D01*
X5995Y17577D01*
D02*
G37*
G36*
X5405D02*
X5335Y17563D01*
X5276Y17524D01*
X5237Y17465D01*
X5223Y17395D01*
X5237Y17326D01*
X5276Y17267D01*
X5335Y17227D01*
X5405Y17214D01*
X5474Y17227D01*
X5533Y17267D01*
X5573Y17326D01*
X5586Y17395D01*
X5573Y17465D01*
X5533Y17524D01*
X5474Y17563D01*
X5405Y17577D01*
D02*
G37*
G36*
X2740Y15140D02*
X2577D01*
X2583Y15110D01*
X2634Y15034D01*
X2710Y14983D01*
X2740Y14977D01*
Y15140D01*
D02*
G37*
G36*
X9700Y12458D02*
X9607Y12446D01*
X9521Y12410D01*
X9447Y12353D01*
X9390Y12279D01*
X9354Y12193D01*
X9342Y12100D01*
X9354Y12007D01*
X9390Y11921D01*
X9447Y11847D01*
X9521Y11790D01*
X9607Y11754D01*
X9700Y11742D01*
X9793Y11754D01*
X9879Y11790D01*
X9953Y11847D01*
X10010Y11921D01*
X10046Y12007D01*
X10058Y12100D01*
X10046Y12193D01*
X10010Y12279D01*
X9953Y12353D01*
X9879Y12410D01*
X9793Y12446D01*
X9700Y12458D01*
D02*
G37*
G36*
X10700Y12124D02*
X10614Y12107D01*
X10541Y12059D01*
X10493Y11986D01*
X10476Y11900D01*
X10493Y11814D01*
X10541Y11741D01*
X10614Y11693D01*
X10700Y11676D01*
X10786Y11693D01*
X10859Y11741D01*
X10907Y11814D01*
X10924Y11900D01*
X10907Y11986D01*
X10859Y12059D01*
X10786Y12107D01*
X10700Y12124D01*
D02*
G37*
G36*
X9055Y12455D02*
X8345D01*
Y11745D01*
X9055D01*
Y12455D01*
D02*
G37*
G36*
X8800Y13194D02*
X8726Y13179D01*
X8663Y13137D01*
X8621Y13074D01*
X8606Y13000D01*
X8621Y12926D01*
X8663Y12863D01*
X8726Y12821D01*
X8800Y12806D01*
X8874Y12821D01*
X8937Y12863D01*
X8979Y12926D01*
X8994Y13000D01*
X8979Y13074D01*
X8937Y13137D01*
X8874Y13179D01*
X8800Y13194D01*
D02*
G37*
G36*
X4400Y13124D02*
X4314Y13107D01*
X4241Y13059D01*
X4193Y12986D01*
X4176Y12900D01*
X4193Y12814D01*
X4241Y12741D01*
X4314Y12693D01*
X4400Y12676D01*
X4486Y12693D01*
X4559Y12741D01*
X4607Y12814D01*
X4624Y12900D01*
X4607Y12986D01*
X4559Y13059D01*
X4486Y13107D01*
X4400Y13124D01*
D02*
G37*
G36*
X6800Y10124D02*
X6714Y10107D01*
X6641Y10059D01*
X6593Y9986D01*
X6576Y9900D01*
X6593Y9814D01*
X6641Y9741D01*
X6714Y9693D01*
X6800Y9676D01*
X6886Y9693D01*
X6959Y9741D01*
X7007Y9814D01*
X7024Y9900D01*
X7007Y9986D01*
X6959Y10059D01*
X6886Y10107D01*
X6800Y10124D01*
D02*
G37*
G36*
X4100D02*
X4014Y10107D01*
X3941Y10059D01*
X3893Y9986D01*
X3876Y9900D01*
X3893Y9814D01*
X3941Y9741D01*
X4014Y9693D01*
X4100Y9676D01*
X4186Y9693D01*
X4259Y9741D01*
X4307Y9814D01*
X4324Y9900D01*
X4307Y9986D01*
X4259Y10059D01*
X4186Y10107D01*
X4100Y10124D01*
D02*
G37*
G36*
X4300Y10924D02*
X4214Y10907D01*
X4141Y10859D01*
X4093Y10786D01*
X4076Y10700D01*
X4093Y10614D01*
X4141Y10541D01*
X4214Y10493D01*
X4300Y10476D01*
X4386Y10493D01*
X4459Y10541D01*
X4507Y10614D01*
X4524Y10700D01*
X4507Y10786D01*
X4459Y10859D01*
X4386Y10907D01*
X4300Y10924D01*
D02*
G37*
G36*
X6500D02*
X6414Y10907D01*
X6341Y10859D01*
X6293Y10786D01*
X6276Y10700D01*
X6293Y10614D01*
X6341Y10541D01*
X6414Y10493D01*
X6500Y10476D01*
X6586Y10493D01*
X6659Y10541D01*
X6707Y10614D01*
X6724Y10700D01*
X6707Y10786D01*
X6659Y10859D01*
X6586Y10907D01*
X6500Y10924D01*
D02*
G37*
G36*
X5500D02*
X5414Y10907D01*
X5341Y10859D01*
X5293Y10786D01*
X5276Y10700D01*
X5293Y10614D01*
X5341Y10541D01*
X5414Y10493D01*
X5500Y10476D01*
X5586Y10493D01*
X5659Y10541D01*
X5707Y10614D01*
X5724Y10700D01*
X5707Y10786D01*
X5659Y10859D01*
X5586Y10907D01*
X5500Y10924D01*
D02*
G37*
G36*
X10900Y13194D02*
X10826Y13179D01*
X10763Y13137D01*
X10721Y13074D01*
X10706Y13000D01*
X10721Y12926D01*
X10763Y12863D01*
X10826Y12821D01*
X10900Y12806D01*
X10974Y12821D01*
X11037Y12863D01*
X11079Y12926D01*
X11094Y13000D01*
X11079Y13074D01*
X11037Y13137D01*
X10974Y13179D01*
X10900Y13194D01*
D02*
G37*
G36*
X4340Y14554D02*
X4332Y14553D01*
X4269Y14527D01*
X4215Y14485D01*
X4173Y14431D01*
X4147Y14368D01*
X4146Y14360D01*
X4340D01*
Y14554D01*
D02*
G37*
G36*
X639Y14360D02*
X476D01*
Y14197D01*
X506Y14203D01*
X582Y14254D01*
X633Y14330D01*
X639Y14360D01*
D02*
G37*
G36*
X4942Y16636D02*
X4868Y16621D01*
X4805Y16579D01*
X4763Y16516D01*
X4748Y16442D01*
X4763Y16368D01*
X4805Y16305D01*
X4827Y16290D01*
X4863Y16237D01*
X4821Y16174D01*
X4806Y16100D01*
X4821Y16026D01*
X4821Y16026D01*
X4800Y15994D01*
X4726Y15979D01*
X4663Y15937D01*
X4621Y15874D01*
X4606Y15800D01*
X4621Y15726D01*
X4662Y15664D01*
Y14463D01*
X4615Y14447D01*
X4585Y14485D01*
X4531Y14527D01*
X4468Y14553D01*
X4460Y14554D01*
Y14300D01*
Y14046D01*
X4468Y14047D01*
X4531Y14073D01*
X4585Y14115D01*
X4627Y14169D01*
X4653Y14232D01*
X4662Y14300D01*
X4659Y14325D01*
X4700Y14352D01*
X4703Y14354D01*
X5256Y13800D01*
X5251Y13776D01*
X5268Y13690D01*
X5317Y13617D01*
X5390Y13568D01*
X5438Y13559D01*
X8213Y10784D01*
X8194Y10738D01*
X7796D01*
X7743Y10727D01*
X7698Y10697D01*
X7403Y10402D01*
X7373Y10357D01*
X7362Y10304D01*
Y8757D01*
X6003Y7397D01*
X5973Y7353D01*
X5962Y7300D01*
Y7182D01*
X5913Y7172D01*
X5910Y7179D01*
X5853Y7253D01*
X5779Y7310D01*
X5693Y7346D01*
X5600Y7358D01*
X5507Y7346D01*
X5421Y7310D01*
X5347Y7253D01*
X5290Y7179D01*
X5254Y7093D01*
X5242Y7000D01*
X5254Y6907D01*
X5290Y6821D01*
X5347Y6747D01*
X5421Y6690D01*
X5507Y6654D01*
X5600Y6642D01*
X5693Y6654D01*
X5779Y6690D01*
X5853Y6747D01*
X5910Y6821D01*
X5913Y6828D01*
X5962Y6818D01*
Y6182D01*
X5913Y6172D01*
X5910Y6179D01*
X5853Y6253D01*
X5779Y6310D01*
X5693Y6346D01*
X5600Y6358D01*
X5507Y6346D01*
X5421Y6310D01*
X5347Y6253D01*
X5290Y6179D01*
X5254Y6093D01*
X5242Y6000D01*
X5254Y5907D01*
X5290Y5821D01*
X5347Y5747D01*
X5421Y5690D01*
X5507Y5654D01*
X5600Y5642D01*
X5693Y5654D01*
X5779Y5690D01*
X5853Y5747D01*
X5910Y5821D01*
X5913Y5828D01*
X5962Y5818D01*
Y4300D01*
X5962Y4300D01*
X5962D01*
X5973Y4247D01*
X6003Y4203D01*
X6162Y4043D01*
Y3609D01*
X6118Y3586D01*
X6086Y3607D01*
X6000Y3624D01*
X5914Y3607D01*
X5841Y3559D01*
X5793Y3486D01*
X5776Y3400D01*
X5793Y3314D01*
X5841Y3241D01*
X5914Y3193D01*
X6000Y3176D01*
X6050Y3186D01*
X6086Y3150D01*
X6076Y3100D01*
X6093Y3014D01*
X6141Y2941D01*
X6214Y2893D01*
X6300Y2876D01*
X6386Y2893D01*
X6459Y2941D01*
X6507Y3014D01*
X6524Y3100D01*
X6507Y3186D01*
X6459Y3259D01*
X6438Y3273D01*
Y4100D01*
X6438Y4100D01*
X6427Y4153D01*
X6397Y4197D01*
X6238Y4357D01*
Y5818D01*
X6287Y5828D01*
X6290Y5821D01*
X6347Y5747D01*
X6421Y5690D01*
X6507Y5654D01*
X6600Y5642D01*
X6693Y5654D01*
X6779Y5690D01*
X6853Y5747D01*
X6910Y5821D01*
X6946Y5907D01*
X6958Y6000D01*
X6946Y6093D01*
X6910Y6179D01*
X6853Y6253D01*
X6779Y6310D01*
X6693Y6346D01*
X6600Y6358D01*
X6507Y6346D01*
X6421Y6310D01*
X6347Y6253D01*
X6290Y6179D01*
X6287Y6172D01*
X6238Y6182D01*
Y6818D01*
X6287Y6828D01*
X6290Y6821D01*
X6347Y6747D01*
X6421Y6690D01*
X6507Y6654D01*
X6600Y6642D01*
X6693Y6654D01*
X6779Y6690D01*
X6853Y6747D01*
X6910Y6821D01*
X6946Y6907D01*
X6958Y7000D01*
X6946Y7093D01*
X6910Y7179D01*
X6853Y7253D01*
X6779Y7310D01*
X6693Y7346D01*
X6600Y7358D01*
X6507Y7346D01*
X6421Y7310D01*
X6347Y7253D01*
X6290Y7179D01*
X6287Y7172D01*
X6238Y7182D01*
Y7243D01*
X7597Y8603D01*
X7627Y8647D01*
X7638Y8700D01*
X7638Y8700D01*
X7638Y8700D01*
Y8700D01*
Y10247D01*
X7853Y10462D01*
X8518D01*
X8528Y10413D01*
X8521Y10410D01*
X8447Y10353D01*
X8390Y10279D01*
X8354Y10193D01*
X8342Y10100D01*
X8354Y10007D01*
X8390Y9921D01*
X8447Y9847D01*
X8521Y9790D01*
X8607Y9754D01*
X8700Y9742D01*
X8793Y9754D01*
X8879Y9790D01*
X8953Y9847D01*
X9010Y9921D01*
X9046Y10007D01*
X9058Y10100D01*
X9046Y10193D01*
X9010Y10279D01*
X8953Y10353D01*
X8879Y10410D01*
X8872Y10413D01*
X8882Y10462D01*
X9518D01*
X9528Y10413D01*
X9521Y10410D01*
X9447Y10353D01*
X9390Y10279D01*
X9354Y10193D01*
X9342Y10100D01*
X9354Y10007D01*
X9390Y9921D01*
X9447Y9847D01*
X9521Y9790D01*
X9607Y9754D01*
X9700Y9742D01*
X9793Y9754D01*
X9879Y9790D01*
X9953Y9847D01*
X10010Y9921D01*
X10046Y10007D01*
X10058Y10100D01*
X10046Y10193D01*
X10010Y10279D01*
X9953Y10353D01*
X9879Y10410D01*
X9872Y10413D01*
X9882Y10462D01*
X11451D01*
X11504Y10473D01*
X11508Y10471D01*
X11576Y10462D01*
X11643Y10471D01*
X11707Y10497D01*
X11761Y10539D01*
X11803Y10593D01*
X11829Y10657D01*
X11838Y10724D01*
X11829Y10792D01*
X11803Y10856D01*
X11761Y10910D01*
X11713Y10947D01*
Y13524D01*
X11703Y13577D01*
X11673Y13622D01*
X10450Y14845D01*
X10458Y14905D01*
X10449Y14973D01*
X10422Y15036D01*
X10381Y15090D01*
X10326Y15132D01*
X10263Y15158D01*
X10195Y15167D01*
X10127Y15158D01*
X10064Y15132D01*
X10010Y15090D01*
X9968Y15036D01*
X9942Y14973D01*
X9933Y14905D01*
X9942Y14837D01*
X9968Y14774D01*
X10010Y14719D01*
X10064Y14678D01*
X10127Y14651D01*
X10195Y14642D01*
X10255Y14650D01*
X11438Y13467D01*
Y10947D01*
X11390Y10910D01*
X11348Y10856D01*
X11322Y10792D01*
X11315Y10738D01*
X9882D01*
X9872Y10787D01*
X9879Y10790D01*
X9953Y10847D01*
X10010Y10921D01*
X10046Y11007D01*
X10058Y11100D01*
X10046Y11193D01*
X10010Y11279D01*
X9953Y11353D01*
X9879Y11410D01*
X9793Y11446D01*
X9700Y11458D01*
X9607Y11446D01*
X9521Y11410D01*
X9447Y11353D01*
X9390Y11279D01*
X9354Y11193D01*
X9342Y11100D01*
X9354Y11007D01*
X9390Y10921D01*
X9447Y10847D01*
X9521Y10790D01*
X9528Y10787D01*
X9518Y10738D01*
X8882D01*
X8872Y10787D01*
X8879Y10790D01*
X8953Y10847D01*
X9010Y10921D01*
X9046Y11007D01*
X9058Y11100D01*
X9046Y11193D01*
X9010Y11279D01*
X8953Y11353D01*
X8879Y11410D01*
X8793Y11446D01*
X8700Y11458D01*
X8607Y11446D01*
X8521Y11410D01*
X8447Y11353D01*
X8390Y11279D01*
X8354Y11193D01*
X8343Y11107D01*
X8295Y11091D01*
X5685Y13701D01*
X5700Y13776D01*
X5683Y13861D01*
X5634Y13934D01*
X5561Y13983D01*
X5476Y14000D01*
X5451Y13995D01*
X4938Y14508D01*
Y15664D01*
X4979Y15726D01*
X4994Y15800D01*
X4979Y15874D01*
X4979Y15874D01*
X5000Y15906D01*
X5074Y15921D01*
X5137Y15963D01*
X5179Y16026D01*
X5194Y16100D01*
X5179Y16174D01*
X5137Y16237D01*
X5115Y16252D01*
X5079Y16305D01*
X5121Y16368D01*
X5136Y16442D01*
X5121Y16516D01*
X5079Y16579D01*
X5016Y16621D01*
X4942Y16636D01*
D02*
G37*
G36*
X4276Y15149D02*
X4190Y15132D01*
X4117Y15083D01*
X4068Y15010D01*
X4051Y14924D01*
X4068Y14839D01*
X4117Y14766D01*
X4190Y14717D01*
X4276Y14700D01*
X4361Y14717D01*
X4434Y14766D01*
X4483Y14839D01*
X4500Y14924D01*
X4483Y15010D01*
X4434Y15083D01*
X4361Y15132D01*
X4276Y15149D01*
D02*
G37*
G36*
X476Y14643D02*
Y14480D01*
X639D01*
X633Y14510D01*
X582Y14586D01*
X506Y14637D01*
X476Y14643D01*
D02*
G37*
G36*
X7300Y14418D02*
X7198Y14404D01*
X7103Y14365D01*
X7021Y14302D01*
X6959Y14221D01*
X6919Y14126D01*
X6906Y14024D01*
X6919Y13922D01*
X6959Y13827D01*
X7021Y13745D01*
X7103Y13682D01*
X7198Y13643D01*
X7300Y13630D01*
X7402Y13643D01*
X7497Y13682D01*
X7579Y13745D01*
X7641Y13827D01*
X7681Y13922D01*
X7694Y14024D01*
X7681Y14126D01*
X7641Y14221D01*
X7579Y14302D01*
X7497Y14365D01*
X7402Y14404D01*
X7300Y14418D01*
D02*
G37*
G36*
X6800Y13524D02*
X6714Y13507D01*
X6641Y13459D01*
X6593Y13386D01*
X6576Y13300D01*
X6593Y13214D01*
X6641Y13141D01*
X6714Y13093D01*
X6800Y13076D01*
X6886Y13093D01*
X6959Y13141D01*
X7007Y13214D01*
X7024Y13300D01*
X7007Y13386D01*
X6959Y13459D01*
X6886Y13507D01*
X6800Y13524D01*
D02*
G37*
G36*
X10300Y14224D02*
X10214Y14207D01*
X10141Y14159D01*
X10093Y14086D01*
X10076Y14000D01*
X10093Y13914D01*
X10141Y13841D01*
X10214Y13793D01*
X10300Y13776D01*
X10386Y13793D01*
X10459Y13841D01*
X10507Y13914D01*
X10524Y14000D01*
X10507Y14086D01*
X10459Y14159D01*
X10386Y14207D01*
X10300Y14224D01*
D02*
G37*
G36*
X11500Y14624D02*
X11414Y14607D01*
X11341Y14559D01*
X11293Y14486D01*
X11276Y14400D01*
X11293Y14314D01*
X11341Y14241D01*
X11414Y14193D01*
X11500Y14176D01*
X11586Y14193D01*
X11659Y14241D01*
X11707Y14314D01*
X11724Y14400D01*
X11707Y14486D01*
X11659Y14559D01*
X11586Y14607D01*
X11500Y14624D01*
D02*
G37*
G36*
X4340Y14240D02*
X4146D01*
X4147Y14232D01*
X4173Y14169D01*
X4215Y14115D01*
X4269Y14073D01*
X4332Y14047D01*
X4340Y14046D01*
Y14240D01*
D02*
G37*
%LPD*%
D20*
X7796Y10600D02*
X8591D01*
X7500Y10304D02*
X7796Y10600D01*
X7500Y8700D02*
Y10304D01*
X6100Y4300D02*
Y7300D01*
X7500Y8700D01*
X11576Y10724D02*
Y13524D01*
X11451Y10600D02*
X11576Y10724D01*
X10195Y14905D02*
X11576Y13524D01*
X8591Y10600D02*
X11451D01*
X5476Y13716D02*
X8591Y10600D01*
X5476Y13716D02*
Y13776D01*
X4800Y14451D02*
X5476Y13776D01*
X4800Y14451D02*
Y15800D01*
X6300Y3100D02*
Y4100D01*
X6100Y4300D02*
X6300Y4100D01*
D21*
X600Y15300D02*
X700D01*
X772Y15372D01*
Y19072D01*
X1200Y19500D01*
X3650Y13450D02*
Y15110D01*
X3630Y15130D02*
X3650Y15110D01*
X3300Y13100D02*
X3650Y13450D01*
X3200Y14200D02*
Y15100D01*
X2428Y13428D02*
X3200Y14200D01*
X772Y13428D02*
X2428D01*
X3500Y2300D02*
X7600D01*
X800Y5000D02*
X3500Y2300D01*
X800Y5000D02*
Y12000D01*
X3500Y2000D02*
X6700D01*
X500Y5000D02*
X3500Y2000D01*
X500Y5000D02*
Y12200D01*
X1900Y16700D02*
X3500Y18300D01*
X1900Y15991D02*
Y16700D01*
Y15991D02*
X2222Y15669D01*
X9500Y19500D02*
X10000Y19000D01*
X1200Y19500D02*
X9500D01*
X1300Y13100D02*
X3300D01*
X4300Y17393D02*
Y17700D01*
X300Y13393D02*
X4300Y17393D01*
X300Y800D02*
Y13393D01*
Y800D02*
X600Y500D01*
X9500D01*
X10000Y1000D01*
X3800Y12300D02*
Y12800D01*
X3600Y12100D02*
X3800Y12300D01*
X1500Y12100D02*
X3600D01*
X1200Y11800D02*
X1500Y12100D01*
X1200Y5000D02*
Y11800D01*
Y5000D02*
X3700Y2500D01*
X8700D01*
X9000Y2200D01*
Y1000D02*
Y2200D01*
X8000Y1000D02*
Y1900D01*
X7600Y2300D02*
X8000Y1900D01*
X800Y12000D02*
X1200Y12400D01*
X3200D01*
X3400Y12600D01*
Y12800D01*
X1100D02*
X3000D01*
X500Y12200D02*
X1100Y12800D01*
X6700Y2000D02*
X7000Y1700D01*
Y1000D02*
Y1700D01*
D23*
X2100Y2394D02*
D03*
Y14206D02*
D03*
D24*
Y2394D02*
D03*
Y14206D02*
D03*
D25*
X7300Y16976D02*
D03*
Y14024D02*
D03*
X8776Y15500D02*
D03*
D26*
X10000Y1000D02*
D03*
X9000D02*
D03*
X8000D02*
D03*
X7000D02*
D03*
X10000Y19000D02*
D03*
D28*
X4300Y17700D02*
D03*
X8776Y15500D02*
D03*
X7300Y14024D02*
D03*
Y16976D02*
D03*
D30*
X6300Y3100D02*
D03*
X3800Y12800D02*
D03*
X3400D02*
D03*
X3000D02*
D03*
X4400Y14300D02*
D03*
X5476Y13776D02*
D03*
X10300Y4900D02*
D03*
X3400Y4200D02*
D03*
D31*
X416Y14420D02*
D03*
X600Y15300D02*
D03*
X3500Y18300D02*
D03*
X1300Y13100D02*
D03*
X772Y13428D02*
D03*
X2222Y15669D02*
D03*
X1600Y17100D02*
D03*
X3500Y17200D02*
D03*
X3200Y15100D02*
D03*
X3630Y15130D02*
D03*
X2800Y15200D02*
D03*
X4800Y15800D02*
D03*
D33*
X10195Y14905D02*
D03*
X11600Y4400D02*
D03*
X11500Y7700D02*
D03*
X11576Y5324D02*
D03*
Y10724D02*
D03*
M02*
