M48
;Layer_Color=9474304
;FILE_FORMAT=2:4
INCH,LZ
;TYPE=PLATED
T1F00S00C0.0118
T2F00S00C0.0120
T3F00S00C0.0160
T4F00S00C0.0200
T5F00S00C0.0291
T6F00S00C0.0354
T7F00S00C0.0441
T8F00S00C0.0472
T9F00S00C0.0669
T10F00S00C0.1570
%
T01
X005995Y016805
Y017395
X0057Y0171
X005405Y017395
Y016805
T02
X0103Y0068
X0109Y013
X0088Y013
X009Y0161
X006084Y015716
X005828Y015928
X006784Y017484
X004942Y016442
X005Y0161
X0048Y0158
X00363Y01513
X0032Y0151
X0028Y0152
X002222Y015669
X002252Y015992
X00155Y01615
Y01665
X0016Y0171
X0035Y0172
Y0183
X003
X000505Y018795
X0003Y0159
X0006Y0153
X000416Y01442
X000772Y013428
X0007Y0128
X0013Y0131
X0034Y0139
T03
X0028Y0042
X0034
X0055Y0031
X0063
X006Y0034
X0076
X0092
X0095Y003
X0091Y0027
X0088Y0041
X0084Y0046
X006841Y004841
X009728Y005372
X0103Y0049
X01037Y00407
X011Y0055
X0075Y0014
X0065
Y0091
X0068Y0099
X0065Y0107
X0068Y0133
X0103Y014
X0115Y0144
X0107Y0119
Y0087
X011Y0077
X0055Y0091
X0043
X0041Y0099
X0043Y0107
X0055
X005476Y013776
X0044Y0143
X004276Y014924
X0044Y0129
X0038Y0128
X0034
X003
T04
X0116Y0044
X011576Y005324
X0115Y0077
X011576Y010724
X010195Y014905
T05
X0073Y014024
Y016976
X008776Y0155
T06
X001988Y001
X002988
X004Y001
X005
X006
X007
X008
X009
X01
X011
X011Y0025
Y0035
X0087Y006
Y007
Y008
Y0091
Y0101
Y0111
X0097
Y0121
X0087
X0097Y0101
Y0091
X0076Y007
Y006
X0066
Y007
X007Y019
X008
X009
X01
X011
X011Y0175
Y0165
X006Y019
X005
X004
X002988Y019
X001988
X0046Y007
X0056
Y006
X0046
T07
X0021Y002394
Y014206
T08
X001Y0033
X0044Y003
X0099Y0021
X011Y0048
X0098Y0064
X008776Y0155
X0073Y014024
Y016976
X0099Y0177
X0043
X0019Y0179
X0005Y0195
T09
X0021Y002394
Y014206
T10
X002904Y01
M30
