%FSLAX24Y24*%
%MOIN*%
G70*
G01*
G75*
G04 Layer_Color=16711935*
%ADD10R,0.0276X0.0354*%
%ADD11R,0.0315X0.0354*%
%ADD12R,0.0354X0.0276*%
%ADD13R,0.0170X0.0520*%
%ADD14R,0.0520X0.0170*%
%ADD15R,0.0217X0.0512*%
%ADD16R,0.0354X0.0315*%
%ADD17R,0.0236X0.0591*%
%ADD18R,0.0413X0.0476*%
%ADD19R,0.1575X0.0709*%
%ADD20C,0.0150*%
%ADD21C,0.0120*%
%ADD22C,0.0300*%
%ADD23C,0.1063*%
%ADD24C,0.0630*%
%ADD25C,0.0472*%
%ADD26C,0.0591*%
%ADD27R,0.0591X0.0591*%
%ADD28C,0.0661*%
%ADD29R,0.0591X0.0591*%
%ADD30C,0.0320*%
%ADD31C,0.0260*%
%ADD32C,0.0236*%
%ADD33C,0.0400*%
%ADD34R,0.0512X0.0217*%
%ADD35O,0.0866X0.0236*%
%ADD36O,0.0374X0.0138*%
%ADD37O,0.0138X0.0374*%
%ADD38R,0.0866X0.0866*%
%ADD39O,0.0236X0.0866*%
%ADD40R,0.0160X0.0255*%
%ADD41C,0.0160*%
%ADD42C,0.0100*%
%ADD43C,0.0098*%
%ADD44C,0.0079*%
%ADD45C,0.0060*%
%ADD46C,0.0050*%
%ADD47C,0.0080*%
%ADD48R,0.0336X0.0414*%
%ADD49R,0.0375X0.0414*%
%ADD50R,0.0414X0.0336*%
%ADD51R,0.0230X0.0580*%
%ADD52R,0.0580X0.0230*%
%ADD53R,0.0277X0.0572*%
%ADD54R,0.0414X0.0375*%
%ADD55R,0.0296X0.0651*%
%ADD56R,0.0473X0.0536*%
%ADD57R,0.1635X0.0769*%
%ADD58C,0.1123*%
%ADD59C,0.0690*%
%ADD60C,0.0532*%
%ADD61C,0.0651*%
%ADD62R,0.0651X0.0651*%
%ADD63C,0.0721*%
%ADD64R,0.0651X0.0651*%
%ADD65C,0.0060*%
%ADD66C,0.0120*%
%ADD67C,0.0200*%
%ADD68R,0.0572X0.0277*%
%ADD69O,0.0926X0.0296*%
%ADD70O,0.0434X0.0198*%
%ADD71O,0.0198X0.0434*%
%ADD72R,0.0926X0.0926*%
%ADD73O,0.0296X0.0926*%
%ADD74R,0.0220X0.0315*%
%ADD75C,0.0036*%
G36*
X8162Y12607D02*
X8172Y12600D01*
X8178Y12590D01*
X8181Y12579D01*
Y7382D01*
X8178Y7370D01*
X8172Y7360D01*
X8162Y7354D01*
X8150Y7351D01*
X650D01*
X638Y7354D01*
X628Y7360D01*
X622Y7370D01*
X619Y7382D01*
Y12579D01*
X622Y12590D01*
X628Y12600D01*
X638Y12607D01*
X650Y12609D01*
X8150D01*
X8162Y12607D01*
D02*
G37*
D48*
X3705Y16700D02*
D03*
X4295D02*
D03*
X4295Y15500D02*
D03*
X3705D02*
D03*
X4295Y16100D02*
D03*
X3705D02*
D03*
X2905Y17900D02*
D03*
X3495D02*
D03*
X9095Y2000D02*
D03*
X8505D02*
D03*
D49*
X11576Y8700D02*
D03*
X11024D02*
D03*
X11576Y6600D02*
D03*
X11024D02*
D03*
X9676Y13000D02*
D03*
X9124D02*
D03*
X11576Y5900D02*
D03*
X11024D02*
D03*
X3376Y3800D02*
D03*
X2824D02*
D03*
X3376Y3100D02*
D03*
X2824D02*
D03*
X11576Y11900D02*
D03*
X11024D02*
D03*
X11576Y11200D02*
D03*
X11024D02*
D03*
X11476Y14000D02*
D03*
X10924D02*
D03*
X11024Y14800D02*
D03*
X11576D02*
D03*
X11024Y15500D02*
D03*
X11576D02*
D03*
D50*
X9500Y14905D02*
D03*
Y15495D02*
D03*
Y15505D02*
D03*
Y16095D02*
D03*
X6500Y15495D02*
D03*
Y14905D02*
D03*
D51*
X9984Y4070D02*
D03*
X9728D02*
D03*
X9472D02*
D03*
X9216D02*
D03*
Y4930D02*
D03*
X9472D02*
D03*
X9728D02*
D03*
X9984D02*
D03*
D53*
X6474Y14292D02*
D03*
X5726D02*
D03*
Y13308D02*
D03*
X6100D02*
D03*
X6474D02*
D03*
X6100Y14292D02*
D03*
D54*
X9800Y7324D02*
D03*
Y7876D02*
D03*
X4400Y13776D02*
D03*
Y13224D02*
D03*
X5100Y13776D02*
D03*
Y13224D02*
D03*
X4800Y15476D02*
D03*
Y14924D02*
D03*
X5400Y15476D02*
D03*
Y14924D02*
D03*
X500Y17824D02*
D03*
Y18376D02*
D03*
X1100Y17824D02*
D03*
Y18376D02*
D03*
X5200Y2124D02*
D03*
Y2676D02*
D03*
X5800Y2124D02*
D03*
Y2676D02*
D03*
D58*
X2100Y2394D02*
D03*
Y14206D02*
D03*
D59*
Y2394D02*
D03*
Y14206D02*
D03*
D60*
X7300Y16976D02*
D03*
Y14024D02*
D03*
X8776Y15500D02*
D03*
D61*
X11000Y17500D02*
D03*
Y3500D02*
D03*
X5600Y6000D02*
D03*
X6600D02*
D03*
X7600D02*
D03*
X4600Y7000D02*
D03*
X5600D02*
D03*
X6600D02*
D03*
X7600D02*
D03*
X8700D02*
D03*
Y8000D02*
D03*
Y11100D02*
D03*
Y10100D02*
D03*
Y9100D02*
D03*
X9700Y12100D02*
D03*
Y11100D02*
D03*
Y10100D02*
D03*
Y9100D02*
D03*
X11000Y1000D02*
D03*
X10000D02*
D03*
X9000D02*
D03*
X8000D02*
D03*
X7000D02*
D03*
X6000D02*
D03*
X5000D02*
D03*
X4000D02*
D03*
X2988Y1000D02*
D03*
X11000Y19000D02*
D03*
X10000D02*
D03*
X9000D02*
D03*
X8000D02*
D03*
X7000D02*
D03*
X6000D02*
D03*
X5000D02*
D03*
X4000D02*
D03*
X2988Y19000D02*
D03*
D62*
X11000Y16500D02*
D03*
Y2500D02*
D03*
X8700Y6000D02*
D03*
Y12100D02*
D03*
D63*
X4300Y17700D02*
D03*
X1900Y17900D02*
D03*
X8776Y15500D02*
D03*
X7300Y14024D02*
D03*
X9900Y17700D02*
D03*
X7300Y16976D02*
D03*
X500Y19500D02*
D03*
X9900Y2100D02*
D03*
X4400Y3000D02*
D03*
X1000Y3300D02*
D03*
X9800Y6400D02*
D03*
X11000Y4800D02*
D03*
D64*
X4600Y6000D02*
D03*
X1988Y1000D02*
D03*
Y19000D02*
D03*
D65*
X2904Y10000D02*
D03*
X416Y14420D02*
D03*
X600Y15300D02*
D03*
X700Y12800D02*
D03*
X4942Y16442D02*
D03*
X10300Y6800D02*
D03*
X8800Y13000D02*
D03*
X10900Y13000D02*
D03*
X3500Y18300D02*
D03*
X1300Y13100D02*
D03*
X772Y13428D02*
D03*
X300Y15900D02*
D03*
X2222Y15669D02*
D03*
X3000Y18300D02*
D03*
X505Y18795D02*
D03*
X1600Y17100D02*
D03*
X1550Y16650D02*
D03*
Y16150D02*
D03*
X3500Y17200D02*
D03*
X3200Y15100D02*
D03*
X3400Y13900D02*
D03*
X3630Y15130D02*
D03*
X2800Y15200D02*
D03*
X2252Y15992D02*
D03*
X6784Y17484D02*
D03*
X9000Y16100D02*
D03*
X5000Y16100D02*
D03*
X4800Y15800D02*
D03*
X5828Y15928D02*
D03*
X6084Y15716D02*
D03*
D66*
X6500Y9100D02*
D03*
X5500D02*
D03*
Y10700D02*
D03*
X6300Y3100D02*
D03*
X4276Y14924D02*
D03*
X3800Y12800D02*
D03*
X3400D02*
D03*
X3000D02*
D03*
X4400Y12900D02*
D03*
Y14300D02*
D03*
X5476Y13776D02*
D03*
X6800Y13300D02*
D03*
X9728Y5372D02*
D03*
X10370Y4070D02*
D03*
X9500Y3000D02*
D03*
X6841Y4841D02*
D03*
X6500Y1400D02*
D03*
X7500D02*
D03*
X9100Y2700D02*
D03*
X8800Y4100D02*
D03*
X10300Y4900D02*
D03*
X8400Y4600D02*
D03*
X2800Y4200D02*
D03*
X3400D02*
D03*
X5500Y3100D02*
D03*
X6000Y3400D02*
D03*
X9200D02*
D03*
X7600D02*
D03*
X11000Y5500D02*
D03*
Y7700D02*
D03*
X10700Y8700D02*
D03*
Y11900D02*
D03*
X11500Y14400D02*
D03*
X10300Y14000D02*
D03*
D67*
X10195Y14905D02*
D03*
X11600Y4400D02*
D03*
X11500Y7700D02*
D03*
X11576Y5324D02*
D03*
Y10724D02*
D03*
D68*
X11492Y7326D02*
D03*
Y8074D02*
D03*
X10508D02*
D03*
Y7700D02*
D03*
Y7326D02*
D03*
X11492Y12626D02*
D03*
Y13374D02*
D03*
X10508D02*
D03*
Y13000D02*
D03*
Y12626D02*
D03*
D69*
X2845Y17150D02*
D03*
Y16650D02*
D03*
Y16150D02*
D03*
Y15650D02*
D03*
X955Y17150D02*
D03*
Y16650D02*
D03*
Y16150D02*
D03*
Y15650D02*
D03*
D70*
X6458Y17484D02*
D03*
Y17228D02*
D03*
Y16972D02*
D03*
Y16716D02*
D03*
X4942D02*
D03*
Y16972D02*
D03*
Y17228D02*
D03*
Y17484D02*
D03*
D71*
X6084Y16342D02*
D03*
X5828D02*
D03*
X5572D02*
D03*
X5316D02*
D03*
Y17858D02*
D03*
X5572D02*
D03*
X5828D02*
D03*
X6084D02*
D03*
D72*
X5700Y17100D02*
D03*
D73*
X6350Y4245D02*
D03*
X6850D02*
D03*
X7350D02*
D03*
X7850D02*
D03*
X6350Y2355D02*
D03*
X6850D02*
D03*
X7350D02*
D03*
X7850D02*
D03*
D74*
X3955Y1847D02*
D03*
X3700D02*
D03*
X3445D02*
D03*
Y2553D02*
D03*
X3700D02*
D03*
X3955D02*
D03*
D75*
X5995Y17395D02*
D03*
X5405D02*
D03*
X5995Y16805D02*
D03*
X5405D02*
D03*
X5700Y17100D02*
D03*
M02*
